<svg width="47" height="47" viewBox="0 0 47 47" fill="none" xmlns="http://www.w3.org/2000/svg">
<path d="M23.4999 46.9998C10.5282 46.9998 0 36.4816 0 23.4999C0 10.5181 10.5181 0 23.4999 0C36.4816 0 46.9998 10.5181 46.9998 23.4999C46.9998 36.4816 36.4816 46.9998 23.4999 46.9998Z" fill="#F0F0EF"/>
<path d="M31.4234 30.8104H15.5759C15.0329 30.8104 14.5703 30.368 14.5502 29.8149C14.52 29.2619 14.9424 28.8094 15.4954 28.8094H31.5039C32.0469 28.8094 32.4692 29.2619 32.4491 29.8149C32.4189 30.368 31.9665 30.8104 31.4234 30.8104Z" fill="#999999"/>
<path d="M29.1509 22.1425C29.3017 16.8633 25.8124 14.8019 23.5097 14.8019C21.207 14.8019 17.7177 16.8734 17.8685 22.1425C17.9389 26.8887 16.2999 28.387 15.3446 28.8093H31.6849C30.7296 28.387 29.0905 26.8887 29.1609 22.1425H29.1509Z" fill="#999999"/>
<path d="M24.5653 14.8019C24.5653 15.4454 24.0827 15.9582 23.4995 15.9582C22.9162 15.9582 22.4336 15.4454 22.4336 14.8019C22.4336 14.1583 22.9062 13.6254 23.4995 13.6254C24.0927 13.6254 24.5653 14.1482 24.5653 14.8019Z" fill="#999999"/>
<path d="M26.2949 29.8148C26.2748 31.3734 25.0179 32.6103 23.4995 32.6103C21.9811 32.6103 20.7241 31.3734 20.704 29.8148C20.6839 28.2361 21.9308 26.9389 23.4995 26.9389C25.0682 26.9389 26.315 28.2361 26.2949 29.8148Z" fill="#999999"/>
<path d="M36.4714 16.9034C36.4714 19.739 34.1687 22.0418 31.333 22.0418C28.4973 22.0418 26.1946 19.739 26.1946 16.9034C26.1946 14.0677 28.4973 11.765 31.333 11.765C34.1687 11.765 36.4714 14.0677 36.4714 16.9034Z" fill="#0071BC"/>
</svg>
