<svg width="47" height="47" viewBox="0 0 47 47" fill="none" xmlns="http://www.w3.org/2000/svg">
<path d="M23.4999 46.9897C10.5181 46.9897 0 36.4716 0 23.4999C0 10.5181 10.5181 0 23.4999 0C36.4816 0 46.9998 10.5181 46.9998 23.4999C46.9998 36.4816 36.4816 46.9998 23.4999 46.9998V46.9897Z" fill="#F0F0EF"/>
<path d="M23.4998 23.4999L33.0124 16.994V16.8934H13.9772V16.994L23.4998 23.4999Z" fill="#999999"/>
<path d="M23.4998 26.7478L13.9772 20.2419V29.9053H33.0124V20.2419L23.4998 26.7478Z" fill="#999999"/>
<path d="M40.0011 16.8933C40.0011 19.729 37.6984 22.0317 34.8627 22.0317C32.0271 22.0317 29.7243 19.729 29.7243 16.8933C29.7243 14.0576 32.0271 11.7549 34.8627 11.7549C37.6984 11.7549 40.0011 14.0576 40.0011 16.8933Z" fill="#0071BC"/>
</svg>
