<svg width="21" height="20" viewBox="0 0 21 20" fill="none" xmlns="http://www.w3.org/2000/svg">
<path fill-rule="evenodd" clip-rule="evenodd" d="M20.0165 2.49198C20.5239 3.67972 20.4431 5.08654 19.7512 6.22815L18.0446 4.77521L20.0165 2.48044V2.49198ZM0.147821 3.35684C-0.221184 4.5907 0.101698 5.98601 1.10493 6.93158C2.16582 7.91176 3.65337 8.11932 4.89877 7.57734C9.10774 11.3596 9.17693 11.3827 12.89 15.4072C12.498 16.6064 12.7632 17.9787 13.7088 18.9473C14.6774 19.939 16.0727 20.2273 17.3066 19.8237L15.2655 17.7596L17.3066 15.7647L19.4168 17.9095C19.9703 16.641 19.7397 15.1074 18.7019 14.058C17.6295 12.974 16.0151 12.7203 14.689 13.3546C10.5376 9.76829 10.5607 9.61839 6.76686 5.58239C7.23965 4.3024 6.9283 2.81485 5.87894 1.83468C4.80652 0.831445 3.27284 0.635413 2.01591 1.22352L4.21841 3.27611L2.2696 5.35179L0.147821 3.36838V3.35684ZM15.3116 4.77521L15.7037 5.23646L14.4929 6.27428L14.1008 5.81304L15.3116 4.77521ZM14.1931 3.47216L14.5852 3.93341L13.3744 4.97123L12.9708 4.50998L14.1816 3.47216H14.1931ZM14.7235 4.15251L15.1271 4.61376L13.9163 5.65158L13.5127 5.17879L14.7235 4.15251ZM14.9888 7.77336L12.5902 10.5986C12.0828 10.1373 11.587 9.66454 11.1027 9.16868C10.7913 8.85734 10.4915 8.55752 10.1917 8.23464L12.521 5.47861C11.9214 4.25628 11.9445 2.7918 13.1207 1.41956C14.2392 0.128045 16.0266 -0.310159 17.5718 0.220287L15.254 2.90709L19.117 6.82781C18.0561 8.24617 16.4187 8.38452 14.9888 7.77336ZM10.1571 13.4814L6.58236 17.7019C5.97119 18.4053 4.92183 18.4976 4.20688 17.8979C3.50347 17.2983 3.42274 16.249 4.01085 15.534L7.75856 11.106C8.05838 11.3827 8.34666 11.6594 8.64648 11.9477C9.1654 12.4436 9.66125 12.9625 10.1571 13.4814ZM6.31713 15.3956C6.77839 15.7992 6.84758 16.4911 6.45551 16.9524C6.05191 17.4137 5.3485 17.4828 4.88724 17.0908C4.42598 16.6872 4.36833 15.9953 4.74886 15.534C5.15246 15.0612 5.85588 15.0036 6.31713 15.3956Z" fill="white"/>
</svg>
