<svg width="47" height="47" viewBox="0 0 47 47" fill="none" xmlns="http://www.w3.org/2000/svg">
<path d="M23.4999 46.9998C10.5181 46.9998 0 36.4816 0 23.4999C0 10.5181 10.5181 0 23.4999 0C36.4816 0 46.9998 10.5181 46.9998 23.4999C46.9998 36.4816 36.4816 46.9998 23.4999 46.9998Z" fill="#F0F0EF"/>
<path d="M18.271 14.3594H16.0688V31.8762H18.271V14.3594Z" fill="#999999"/>
<path d="M28.8292 26.4965H17.1647V15.1136H28.8292L24.8472 20.805L28.8292 26.4965Z" fill="#999999"/>
<path d="M36.1999 16.9034C36.1999 19.739 33.8971 22.0418 31.0615 22.0418C28.2258 22.0418 25.9231 19.739 25.9231 16.9034C25.9231 14.0677 28.2258 11.765 31.0615 11.765C33.8971 11.765 36.1999 14.0677 36.1999 16.9034Z" fill="#0071BC"/>
</svg>
