<svg width="17" height="17" viewBox="0 0 17 17" fill="none" xmlns="http://www.w3.org/2000/svg">
<path d="M16.4921 6.95553C16.4921 6.95553 16.6062 8.1476 16.6062 8.5415C16.6062 8.95614 16.4921 10.2 16.4921 10.2C16.233 12.0555 15.497 13.7244 14.1598 14.9269L11.4128 12.8641C11.6202 12.7293 11.8171 12.5738 12.0037 12.408C12.6671 11.8171 12.9885 11.0604 13.1336 10.2H8.50003V6.95553H16.4818H16.4921Z" fill="#0082FD"/>
<path d="M14.2012 2.22866L11.7653 4.63355C10.8842 3.89757 9.80612 3.35854 8.58294 3.35854C6.32318 3.35854 4.39513 4.80977 3.69025 6.83111L0.901826 4.73721C2.30122 1.93842 5.20368 0 8.51039 0C10.6769 0 12.6982 0.870734 14.1909 2.2183L14.2012 2.22866Z" fill="#FF4131"/>
<path d="M14.1701 14.9268C14.1701 14.9268 14.1494 14.9476 14.139 14.9476C12.6464 16.2744 10.625 17 8.4689 17C5.15182 17 2.28048 15.0927 0.89145 12.3146L3.67987 10.2104C4.37439 12.2421 6.30244 13.7037 8.57257 13.7037C9.61952 13.7037 10.6043 13.3927 11.4232 12.8537L14.1701 14.9165V14.9268Z" fill="#00A84C"/>
<path d="M3.67989 10.2104L0.891466 12.3147C0.321343 11.1744 0 9.88905 0 8.53112C0 7.17319 0.321337 5.87746 0.901826 4.73721L3.69025 6.83112C3.50366 7.35978 3.40001 7.94027 3.40001 8.53112C3.40001 9.12198 3.4933 9.68174 3.67989 10.2104Z" fill="#FFBB00"/>
</svg>
