<svg width="206" height="57" viewBox="0 0 206 57" fill="none" xmlns="http://www.w3.org/2000/svg">
<g clip-path="url(#clip0_24_600)">
<path d="M56.4299 28.2149C56.4299 30.7225 56.0989 33.1498 55.487 35.4668C52.2874 47.5431 41.2943 56.4299 28.2149 56.4299C19.4185 56.4299 11.5548 52.4078 6.38923 46.0988C2.39722 41.2241 0 34.9953 0 28.2149C0 12.628 12.628 0 28.2149 0C43.8019 0 56.4299 12.628 56.4299 28.2149Z" fill="#F7F5FF"/>
<path d="M55.4871 35.4668C52.2875 47.5431 41.2944 56.4299 28.2151 56.4299C19.4186 56.4299 11.5549 52.4078 6.38935 46.0988C14.6442 35.9984 23.551 34.9252 23.551 34.9252C23.551 34.9252 23.3404 33.4006 23.551 32.9893C23.7015 32.6985 24.2632 32.4276 24.5641 32.3073C24.6844 32.2571 24.7647 32.227 24.7647 32.227C24.7647 32.227 25.216 32.1468 25.9181 32.0365C27.3324 31.8158 29.7597 31.4547 31.6454 31.3143C32.2171 31.2641 32.7487 31.2441 33.18 31.2441C33.6414 31.2441 34.0025 31.2942 34.193 31.3845C34.4338 31.4948 34.7046 32.217 34.7046 32.217C34.7046 32.217 38.1951 31.6754 43.0196 32.217C45.0457 32.4477 50.0909 33.3805 55.4972 35.4568L55.4871 35.4668Z" fill="#8758E7"/>
<path d="M23.4406 19.6291C23.4406 19.6291 18.5058 18.0443 18.4757 21.7555C18.4456 26.0484 23.5409 25.6171 23.5409 25.6171L23.4406 19.6291Z" fill="#FC907E"/>
<path d="M21.4143 23.7113C21.324 23.7113 21.2237 23.6712 21.1635 23.5809L19.328 21.0132C19.2277 20.8728 19.2578 20.6922 19.3982 20.5919C19.5386 20.4916 19.7192 20.5217 19.8195 20.6622L21.655 23.2299C21.7553 23.3703 21.7252 23.5508 21.5848 23.6511C21.5346 23.6913 21.4745 23.7113 21.4043 23.7113H21.4143Z" fill="black"/>
<path d="M19.4888 23.0694C19.3383 23.0694 19.2079 22.9591 19.1879 22.7986C19.1678 22.6281 19.2882 22.4877 19.4587 22.4676L20.8128 22.3172C20.9833 22.2971 21.1237 22.4175 21.1438 22.588C21.1638 22.7585 21.0435 22.8989 20.8729 22.919L19.5189 23.0694C19.5189 23.0694 19.4988 23.0694 19.4888 23.0694Z" fill="black"/>
<path d="M32.939 28.9572L33.4405 33.9322C33.4405 33.9322 31.615 35.1458 29.2178 35.4166C25.9781 35.7777 24.7042 33.9522 24.7042 33.9522L24.1827 28.1046L32.939 28.9572Z" fill="#FC907E"/>
<path d="M32.9394 28.9472C32.9394 28.9472 31.7558 33.1298 28.0246 32.9191C25.0155 32.7486 23.7718 28.6162 23.7718 28.6162L32.9394 28.9472Z" fill="black"/>
<path d="M21.5547 15.6973C21.5547 15.6973 20.321 25.0153 23.31 28.8067C26.5196 32.879 30.9028 31.1638 32.4776 29.7095C34.5939 27.7435 34.8347 25.2761 34.8347 25.2761C34.8347 25.2761 38.0243 25.6071 38.8267 22.9591C39.6692 20.1707 37.5228 18.1948 35.948 18.2149C34.3733 18.2349 34.2128 18.5358 34.2128 18.5358L34.4034 15.6271C34.4034 15.6271 23.9018 5.9379 21.5547 15.7073V15.6973Z" fill="#FC907E"/>
<path d="M35.0858 22.6282C35.0056 22.6282 34.9353 22.5981 34.8752 22.5479C34.7548 22.4276 34.7548 22.237 34.8752 22.1166L37.1019 19.8197C37.2222 19.6993 37.4128 19.6993 37.5332 19.8197C37.6535 19.9401 37.6535 20.1306 37.5332 20.251L35.3065 22.5479C35.2463 22.6081 35.166 22.6382 35.0858 22.6382V22.6282Z" fill="black"/>
<path d="M37.3424 22.7987C37.2923 22.7987 37.2321 22.7886 37.1819 22.7585L35.6573 21.8157C35.5169 21.7254 35.4668 21.5449 35.557 21.3944C35.6473 21.254 35.8279 21.2039 35.9783 21.2941L37.5029 22.237C37.6433 22.3272 37.6935 22.5078 37.6032 22.6582C37.543 22.7485 37.4427 22.7987 37.3424 22.7987Z" fill="black"/>
<path d="M30.1306 20.5519C29.9702 20.5519 29.8297 20.4215 29.8297 20.261L29.7796 18.7164C29.7796 18.5459 29.8999 18.4055 30.0705 18.4055C30.241 18.3854 30.3814 18.5258 30.3814 18.6963L30.4315 20.241C30.4315 20.4115 30.3112 20.5519 30.1407 20.5519C30.1407 20.5519 30.1407 20.5519 30.1306 20.5519Z" fill="black"/>
<path d="M24.233 20.7726C24.0725 20.7726 23.9321 20.6422 23.9321 20.4817L23.8819 18.937C23.8819 18.7665 24.0023 18.6261 24.1728 18.6261C24.3333 18.606 24.4838 18.7465 24.4838 18.917L24.5339 20.4616C24.5339 20.6321 24.4136 20.7726 24.243 20.7726C24.243 20.7726 24.243 20.7726 24.233 20.7726Z" fill="black"/>
<path d="M27.3221 24.594C27.1917 24.594 27.0713 24.5138 27.0312 24.3734C26.3291 21.9962 26.9208 19.9501 26.9409 19.8598C26.9911 19.6993 27.1515 19.609 27.312 19.6592C27.4725 19.7093 27.5628 19.8698 27.5126 20.0303C27.5126 20.0504 26.9509 21.9962 27.6029 24.1928C27.6531 24.3533 27.5628 24.5238 27.4023 24.574C27.3722 24.574 27.3421 24.584 27.312 24.584L27.3221 24.594Z" fill="black"/>
<path d="M23.1797 17.6231C23.1095 17.6231 23.0292 17.593 22.969 17.5428C22.8487 17.4225 22.8487 17.2319 22.959 17.1115C23.5708 16.4696 24.6842 16.3793 24.7343 16.3693C24.8948 16.3593 25.0453 16.4796 25.0553 16.6502C25.0653 16.8207 24.945 16.9611 24.7745 16.9711C24.7745 16.9711 23.8417 17.0514 23.3903 17.5228C23.3301 17.583 23.2499 17.6131 23.1696 17.6131L23.1797 17.6231Z" fill="black"/>
<path d="M30.7725 17.5027C30.7224 17.5027 30.6722 17.4926 30.6221 17.4625C30.0604 17.1315 29.1476 17.3121 29.1376 17.3121C28.9771 17.3422 28.8166 17.2419 28.7765 17.0714C28.7464 16.9109 28.8467 16.7504 29.0072 16.7103C29.0573 16.7103 30.1506 16.4796 30.9129 16.9309C31.0534 17.0112 31.1035 17.2018 31.0233 17.3422C30.9631 17.4425 30.8628 17.4926 30.7625 17.4926L30.7725 17.5027Z" fill="black"/>
<path d="M34.9351 18.4756C34.9351 18.4756 34.213 21.3743 33.8418 21.2941C33.4707 21.2138 33.6713 16.7203 34.7044 16.4395C35.7476 16.1586 34.9351 18.4656 34.9351 18.4656V18.4756Z" fill="black"/>
<path d="M27.7737 27.2219C27.6133 27.2219 27.4829 27.0915 27.4728 26.931C27.4728 26.7605 27.5932 26.6201 27.7637 26.6201C27.8239 26.6201 29.3084 26.5399 29.8801 25.2761C29.9503 25.1256 30.1308 25.0554 30.2813 25.1256C30.4317 25.1958 30.502 25.3764 30.4317 25.5268C29.6995 27.1417 27.864 27.2219 27.7838 27.232C27.7838 27.232 27.7838 27.232 27.7737 27.232V27.2219Z" fill="black"/>
<path d="M34.4439 18.0945C34.4439 18.0945 31.2644 17.9641 29.0677 16.4195C27.2122 15.1156 26.4298 13.1597 26.4298 13.1597C26.4298 13.1597 25.0657 13.0493 23.17 14.3232C21.2843 15.607 21.2943 19.2981 21.2943 19.2981C21.2943 19.2981 17.4327 13.2098 19.0476 10.9229C20.6624 8.63605 23.5311 10.3512 23.5311 10.3512C23.5311 10.3512 22.859 6.28899 28.5763 7.623C34.3035 8.95702 35.808 13.7815 35.808 13.7815C35.808 13.7815 37.7338 13.5308 38.0448 15.3061C38.3657 17.0815 37.7138 18.9371 37.7138 18.9371C37.7138 18.9371 36.8411 18.1748 35.5673 18.7064L34.2935 19.238L34.4239 18.0945H34.4439Z" fill="black"/>
<path d="M24.7645 32.227C24.7645 32.227 25.8678 33.2701 28.4054 33.3303C30.943 33.3905 33.1798 31.3343 33.1798 31.3343L34.8247 34.3434L30.7725 36.8208L23.9721 36.2491V33.1999L24.7645 32.217V32.227Z" fill="#8758E7"/>
<path d="M27.563 37.1318C24.8147 37.1318 23.3102 35.1157 23.2901 35.0956C23.1898 34.9652 23.2199 34.7747 23.3603 34.6744C23.4907 34.5741 23.6813 34.6042 23.7816 34.7446C23.8618 34.8549 25.7275 37.3424 29.228 36.2692C29.3885 36.219 29.559 36.3093 29.6091 36.4698C29.6593 36.6303 29.569 36.8008 29.4085 36.8509C28.7466 37.0515 28.1247 37.1418 27.563 37.1418V37.1318Z" fill="white"/>
<path d="M204.977 25.8177L199.902 30.893L194.827 25.8177" stroke="#333333" stroke-width="2.03" stroke-linecap="round" stroke-linejoin="round"/>
</g>
<defs>
<clipPath id="clip0_24_600">
<rect width="205.38" height="56.26" fill="white" transform="scale(1.00302)"/>
</clipPath>
</defs>
</svg>
