<svg width="229" height="47" viewBox="0 0 229 47" fill="none" xmlns="http://www.w3.org/2000/svg">
<g clip-path="url(#clip0_24_860)">
<path d="M23.456 46.902C10.4985 46.902 0 36.4035 0 23.456C0 10.4985 10.4985 0 23.456 0H205.554C218.511 0 229.01 10.4985 229.01 23.456C229.01 36.4135 218.511 46.912 205.554 46.912" fill="#F0F0EF"/>
<path d="M203.978 28.083C202.302 28.083 200.626 27.4407 199.341 26.166C196.781 23.6066 196.781 19.4514 199.341 16.902C201.9 14.3527 206.055 14.3426 208.605 16.902C211.164 19.4614 211.164 23.6166 208.605 26.166C207.33 27.4407 205.644 28.083 203.968 28.083H203.978ZM203.978 17.5343C202.954 17.5343 201.93 17.9258 201.147 18.6986C199.592 20.2543 199.592 22.8037 201.147 24.3594C202.713 25.9251 205.253 25.9251 206.808 24.3594C208.364 22.8037 208.364 20.2643 206.808 18.6986C206.025 17.9157 205.002 17.5343 203.978 17.5343Z" fill="#1D2A35"/>
<path d="M208.603 24.3662L206.8 26.1688L211.868 31.2362L213.67 29.4335L208.603 24.3662Z" fill="#1D2A35"/>
</g>
<defs>
<clipPath id="clip0_24_860">
<rect width="228.16" height="46.73" fill="white" transform="scale(1.00368)"/>
</clipPath>
</defs>
</svg>
