<svg width="11" height="11" viewBox="0 0 11 11" fill="none" xmlns="http://www.w3.org/2000/svg">
<g clip-path="url(#clip0_1_50)">
<path d="M5.49453 10.9891C8.52908 10.9891 10.9891 8.52908 10.9891 5.49453C10.9891 2.45999 8.52908 0 5.49453 0C2.45999 0 0 2.45999 0 5.49453C0 8.52908 2.45999 10.9891 5.49453 10.9891Z" fill="#2B388F"/>
<path d="M3.99006 8.3835C3.88104 8.3835 3.77203 8.33989 3.70661 8.26358L1.52624 5.94148C1.39542 5.81066 1.42813 5.61443 1.58075 5.50541C1.74428 5.39639 1.97322 5.41819 2.09314 5.55992L3.99006 7.57676L8.55794 2.73634C8.68876 2.60551 8.9177 2.58371 9.07033 2.69273C9.23385 2.80175 9.25566 2.99798 9.12484 3.1288L4.27351 8.26358C4.2081 8.33989 4.09908 8.3835 3.99006 8.3835Z" fill="white"/>
</g>
<defs>
<clipPath id="clip0_1_50">
<rect width="10.09" height="10.09" fill="white" transform="scale(1.09019)"/>
</clipPath>
</defs>
</svg>
