<svg width="172" height="60" viewBox="0 0 172 60" fill="none" xmlns="http://www.w3.org/2000/svg">
<path fill-rule="evenodd" clip-rule="evenodd" d="M14.232 12.9868C14.3021 12.9868 14.3622 12.9668 14.4323 12.9668C15.2235 12.9668 15.6242 12.5661 15.6342 11.7649C15.6442 10.9837 15.9947 10.3928 16.6658 9.98215C17.3468 9.59154 17.487 9.04067 17.1065 8.33958C16.7259 7.66854 16.7259 6.96746 17.1065 6.2864C17.487 5.60534 17.3468 5.06449 16.6658 4.65385C15.9847 4.25323 15.6442 3.66228 15.6342 2.87105C15.6342 2.08984 15.2335 1.69929 14.4323 1.67926C13.6511 1.66924 13.0602 1.31867 12.6395 0.647622C12.2489 -0.0234219 11.688 -0.183664 11.017 0.216959C10.3159 0.597551 9.64485 0.597551 8.94376 0.216959C8.2627 -0.183664 7.71184 -0.0234219 7.31122 0.647622C6.91059 1.31867 6.31968 1.66924 5.52844 1.67926C4.73721 1.68927 4.33659 2.07982 4.32657 2.87105C4.31656 3.6723 3.96601 4.25323 3.28495 4.65385C2.61391 5.06449 2.45366 5.60534 2.85428 6.2864C3.23487 6.97747 3.23487 7.66854 2.85428 8.33958C2.45366 9.04067 2.61391 9.59154 3.28495 9.98215C3.96601 10.3928 4.30654 10.9837 4.32657 11.7649C4.32657 12.3258 4.5369 12.6763 4.91749 12.8566L1.84271 23.5232L5.47836 20.7389L7.07084 25.0256L9.55471 16.3921L12.0286 25.0256L13.631 20.7389L17.2567 23.5232L14.222 12.9768L14.232 12.9868ZM9.98538 4.5036L10.5362 6.45665H12.3691L10.8868 7.65853L11.4577 9.61158L9.98538 8.39967L8.50307 9.61158L9.07396 7.65853L7.59165 6.45665H9.42451L9.99539 4.5036H9.98538ZM9.98538 11.6347C7.61168 11.6347 5.66866 9.71171 5.66866 7.328C5.66866 4.94429 7.61168 3.02131 9.98538 3.02131C12.3591 3.02131 14.3021 4.94429 14.3021 7.328C14.3021 9.71171 12.3691 11.6347 9.98538 11.6347Z" fill="white"/>
<path d="M6.74049 52.6685C6.74049 54.0106 5.64879 55.1023 4.3067 55.1023C2.96461 55.1023 1.87291 54.0106 1.87291 52.6685C1.87291 51.3265 2.96461 50.2348 4.3067 50.2348C5.64879 50.2348 6.74049 51.3265 6.74049 52.6685Z" fill="white"/>
<path d="M6.81059 55.1925C6.1696 55.8335 5.28823 56.2241 4.3067 56.2241C3.32517 56.2241 2.45382 55.8335 1.8028 55.1925C0.731137 55.8034 0 56.9552 0 58.2772V59.0284C0 59.3389 0.250387 59.5893 0.56087 59.5893H8.0325C8.34298 59.5893 8.59337 59.3389 8.59337 59.0284V58.2772C8.59337 56.9552 7.87225 55.8034 6.79056 55.1925H6.81059Z" fill="white"/>
<path d="M17.2869 52.6685C17.2869 54.0106 16.1952 55.1023 14.8531 55.1023C13.511 55.1023 12.4193 54.0106 12.4193 52.6685C12.4193 51.3265 13.511 50.2348 14.8531 50.2348C16.1952 50.2348 17.2869 51.3265 17.2869 52.6685Z" fill="white"/>
<path d="M17.357 55.1925C16.716 55.8335 15.8346 56.2241 14.8531 56.2241C13.8716 56.2241 13.0002 55.8335 12.3492 55.1925C11.2775 55.8034 10.5464 56.9552 10.5464 58.2772V59.0284C10.5464 59.3389 10.7968 59.5893 11.1073 59.5893H18.5789C18.8894 59.5893 19.1398 59.3389 19.1398 59.0284V58.2772C19.1398 56.9552 18.4187 55.8034 17.337 55.1925H17.357Z" fill="white"/>
<path d="M4.31671 40.4495C1.94302 40.4495 0.0200297 42.3726 0.0200297 44.7462C0.0200297 47.1199 1.94302 49.0429 4.31671 49.0429C6.69041 49.0429 8.6134 47.1199 8.6134 44.7462C8.6134 42.3726 6.69041 40.4495 4.31671 40.4495ZM6.19964 44.1553L4.08636 46.2686C3.86601 46.4889 3.51547 46.4889 3.29513 46.2686L2.23347 45.2069C2.01313 44.9866 2.01313 44.6361 2.23347 44.4157C2.45382 44.1954 2.80436 44.1954 3.02471 44.4157L3.68573 45.0767L5.40841 43.3541C5.62875 43.1337 5.9793 43.1337 6.19964 43.3541C6.41999 43.5744 6.41999 43.9249 6.19964 44.1453V44.1553Z" fill="white"/>
<path d="M14.8531 49.0429C17.2268 49.0429 19.1498 47.1199 19.1498 44.7462C19.1498 42.3726 17.2268 40.4495 14.8531 40.4495C12.4794 40.4495 10.5564 42.3726 10.5564 44.7462C10.5564 47.1199 12.4794 49.0429 14.8531 49.0429ZM13.4008 44.0852C13.1805 43.8648 13.1805 43.5143 13.4008 43.294C13.6212 43.0736 13.9717 43.0736 14.1921 43.294L14.8531 43.955L15.5141 43.294C15.7345 43.0736 16.085 43.0736 16.3054 43.294C16.5257 43.5143 16.5257 43.8648 16.3054 44.0852L15.6443 44.7462L16.3054 45.4072C16.5257 45.6276 16.5257 45.9781 16.3054 46.1985C16.085 46.4188 15.7345 46.4188 15.5141 46.1985L14.8531 45.5375L14.1921 46.1985C13.9717 46.4188 13.6212 46.4188 13.4008 46.1985C13.1805 45.9781 13.1805 45.6276 13.4008 45.4072L14.0619 44.7462L13.4008 44.0852Z" fill="white"/>
<path d="M44.8075 18.3031C43.9528 18.3031 43.1623 18.1642 42.4358 17.8864C41.72 17.598 41.0951 17.1974 40.5609 16.6846C40.0374 16.1611 39.6261 15.5521 39.327 14.8577C39.0279 14.1633 38.8783 13.3995 38.8783 12.5662C38.8783 11.7329 39.0279 10.969 39.327 10.2746C39.6261 9.58018 40.0428 8.97657 40.5769 8.46377C41.1111 7.94029 41.7361 7.53967 42.4518 7.2619C43.1783 6.97345 43.9689 6.82923 44.8235 6.82923C45.6889 6.82923 46.4848 6.9788 47.2113 7.27793C47.9484 7.56638 48.5734 7.99905 49.0862 8.57595L48.0445 9.58552C47.6172 9.13682 47.1365 8.80564 46.6023 8.59197C46.0681 8.36762 45.4966 8.25545 44.8876 8.25545C44.2573 8.25545 43.6697 8.36228 43.1249 8.57595C42.5907 8.78961 42.126 9.08875 41.7307 9.47334C41.3354 9.85794 41.0256 10.3173 40.8013 10.8515C40.5876 11.375 40.4808 11.9465 40.4808 12.5662C40.4808 13.1858 40.5876 13.7627 40.8013 14.2968C41.0256 14.8203 41.3354 15.2744 41.7307 15.659C42.126 16.0436 42.5907 16.3427 43.1249 16.5564C43.6697 16.77 44.2573 16.8769 44.8876 16.8769C45.4966 16.8769 46.0681 16.77 46.6023 16.5564C47.1365 16.332 47.6172 15.9901 48.0445 15.5308L49.0862 16.5403C48.5734 17.1172 47.9484 17.5553 47.2113 17.8544C46.4848 18.1535 45.6835 18.3031 44.8075 18.3031Z" fill="white"/>
<path d="M54.4256 18.271C53.5709 18.271 52.8124 18.0841 52.1501 17.7102C51.4877 17.3362 50.9642 16.8234 50.5796 16.1718C50.195 15.5094 50.0027 14.7616 50.0027 13.9283C50.0027 13.0843 50.195 12.3365 50.5796 11.6848C50.9642 11.0331 51.4877 10.5256 52.1501 10.1624C52.8124 9.7885 53.5709 9.60154 54.4256 9.60154C55.2696 9.60154 56.0228 9.7885 56.6851 10.1624C57.3582 10.5256 57.8816 11.0331 58.2556 11.6848C58.6402 12.3258 58.8325 13.0736 58.8325 13.9283C58.8325 14.7723 58.6402 15.5201 58.2556 16.1718C57.8816 16.8234 57.3582 17.3362 56.6851 17.7102C56.0228 18.0841 55.2696 18.271 54.4256 18.271ZM54.4256 16.9249C54.9704 16.9249 55.4565 16.8021 55.8839 16.5564C56.3219 16.3106 56.6637 15.9634 56.9095 15.5147C57.1552 15.0554 57.278 14.5265 57.278 13.9283C57.278 13.3193 57.1552 12.7958 56.9095 12.3578C56.6637 11.9091 56.3219 11.5619 55.8839 11.3162C55.4565 11.0705 54.9704 10.9476 54.4256 10.9476C53.8808 10.9476 53.3947 11.0705 52.9673 11.3162C52.54 11.5619 52.1981 11.9091 51.9417 12.3578C51.6853 12.7958 51.5571 13.3193 51.5571 13.9283C51.5571 14.5265 51.6853 15.0554 51.9417 15.5147C52.1981 15.9634 52.54 16.3106 52.9673 16.5564C53.3947 16.8021 53.8808 16.9249 54.4256 16.9249Z" fill="white"/>
<path d="M60.96 18.1749V9.68167H62.4343V11.9893L62.2901 11.4124C62.5251 10.8248 62.9204 10.3761 63.4759 10.0663C64.0315 9.75645 64.7152 9.60154 65.5271 9.60154V11.0919C65.463 11.0812 65.3989 11.0758 65.3348 11.0758C65.2814 11.0758 65.228 11.0758 65.1746 11.0758C64.352 11.0758 63.7003 11.3216 63.2195 11.813C62.7388 12.3044 62.4984 13.0149 62.4984 13.9443V18.1749H60.96Z" fill="white"/>
<path d="M67.4232 18.1749V9.68167H68.8975V11.9893L68.7533 11.4124C68.9883 10.8248 69.3836 10.3761 69.9391 10.0663C70.4946 9.75645 71.1784 9.60154 71.9903 9.60154V11.0919C71.9262 11.0812 71.8621 11.0758 71.798 11.0758C71.7446 11.0758 71.6912 11.0758 71.6378 11.0758C70.8151 11.0758 70.1635 11.3216 69.6827 11.813C69.202 12.3044 68.9616 13.0149 68.9616 13.9443V18.1749H67.4232Z" fill="white"/>
<path d="M77.59 18.271C76.6819 18.271 75.8807 18.0841 75.1863 17.7102C74.5025 17.3362 73.9684 16.8234 73.5838 16.1718C73.2099 15.5201 73.0229 14.7723 73.0229 13.9283C73.0229 13.0843 73.2045 12.3365 73.5678 11.6848C73.9417 11.0331 74.4491 10.5256 75.0901 10.1624C75.7418 9.7885 76.4736 9.60154 77.2855 9.60154C78.1082 9.60154 78.8346 9.78316 79.4649 10.1464C80.0952 10.5096 80.5867 11.0224 80.9392 11.6848C81.3025 12.3365 81.4841 13.1003 81.4841 13.9763C81.4841 14.0404 81.4787 14.1152 81.468 14.2007C81.468 14.2862 81.4627 14.3663 81.452 14.4411H74.2248V13.3354H80.6508L80.0258 13.72C80.0365 13.1751 79.9243 12.689 79.6893 12.2617C79.4542 11.8344 79.1284 11.5032 78.7118 11.2681C78.3058 11.0224 77.8304 10.8996 77.2855 10.8996C76.7514 10.8996 76.276 11.0224 75.8593 11.2681C75.4427 11.5032 75.1168 11.8397 74.8818 12.2777C74.6468 12.705 74.5293 13.1965 74.5293 13.752V14.0084C74.5293 14.5746 74.6574 15.0821 74.9138 15.5308C75.1809 15.9688 75.5495 16.3106 76.0196 16.5564C76.4896 16.8021 77.0291 16.9249 77.6381 16.9249C78.1402 16.9249 78.5942 16.8395 79.0002 16.6685C79.4169 16.4976 79.7801 16.2412 80.0899 15.8993L80.9392 16.8929C80.5546 17.3416 80.0739 17.6834 79.497 17.9185C78.9308 18.1535 78.2951 18.271 77.59 18.271Z" fill="white"/>
<path d="M86.0561 18.271C85.351 18.271 84.6779 18.1749 84.0369 17.9826C83.4066 17.7903 82.9098 17.5553 82.5466 17.2775L83.1876 16.0596C83.5508 16.3053 83.9995 16.5136 84.5337 16.6846C85.0678 16.8555 85.6127 16.941 86.1682 16.941C86.884 16.941 87.3968 16.8395 87.7066 16.6365C88.0271 16.4335 88.1874 16.1504 88.1874 15.7872C88.1874 15.5201 88.0912 15.3118 87.8989 15.1622C87.7066 15.0126 87.4502 14.9005 87.1297 14.8257C86.8199 14.7509 86.4727 14.6868 86.0881 14.6334C85.7035 14.5693 85.3189 14.4945 84.9343 14.409C84.5497 14.3129 84.1972 14.1847 83.8767 14.0244C83.5562 13.8535 83.2998 13.6238 83.1075 13.3354C82.9152 13.0362 82.819 12.6409 82.819 12.1495C82.819 11.6367 82.9632 11.188 83.2517 10.8034C83.5401 10.4188 83.9461 10.125 84.4696 9.92204C85.0038 9.70838 85.6341 9.60154 86.3605 9.60154C86.9161 9.60154 87.4769 9.67098 88.0431 9.80987C88.62 9.93807 89.0901 10.125 89.4533 10.3707L88.7963 11.5886C88.4117 11.3322 88.0111 11.156 87.5945 11.0598C87.1778 10.9637 86.7612 10.9156 86.3445 10.9156C85.6715 10.9156 85.1693 11.0278 84.8382 11.2521C84.507 11.4658 84.3414 11.7435 84.3414 12.0854C84.3414 12.3739 84.4375 12.5982 84.6298 12.7585C84.8328 12.908 85.0892 13.0255 85.399 13.111C85.7195 13.1965 86.0721 13.2713 86.4567 13.3354C86.8413 13.3888 87.2259 13.4636 87.6105 13.5597C87.9951 13.6452 88.3423 13.768 88.6521 13.9283C88.9726 14.0885 89.229 14.3129 89.4213 14.6013C89.6243 14.8898 89.7258 15.2744 89.7258 15.7551C89.7258 16.2679 89.5762 16.7113 89.2771 17.0852C88.9779 17.4591 88.5559 17.7529 88.0111 17.9666C87.4662 18.1695 86.8146 18.271 86.0561 18.271Z" fill="white"/>
<path d="M96.1514 18.271C95.4463 18.271 94.8 18.1108 94.2124 17.7903C93.6355 17.4591 93.1707 16.973 92.8182 16.332C92.4763 15.691 92.3054 14.8898 92.3054 13.9283C92.3054 12.9668 92.471 12.1655 92.8022 11.5245C93.144 10.8835 93.6034 10.4028 94.1803 10.0823C94.7679 9.76179 95.4249 9.60154 96.1514 9.60154C96.9847 9.60154 97.7218 9.78316 98.3628 10.1464C99.0038 10.5096 99.5113 11.0171 99.8852 11.6688C100.259 12.3098 100.446 13.0629 100.446 13.9283C100.446 14.7936 100.259 15.5521 99.8852 16.2038C99.5113 16.8555 99.0038 17.363 98.3628 17.7262C97.7218 18.0894 96.9847 18.271 96.1514 18.271ZM91.6484 21.2837V9.68167H93.1227V11.9732L93.0265 13.9443L93.1868 15.9154V21.2837H91.6484ZM96.0232 16.9249C96.568 16.9249 97.0541 16.8021 97.4815 16.5564C97.9195 16.3106 98.2613 15.9634 98.5071 15.5147C98.7634 15.0554 98.8917 14.5265 98.8917 13.9283C98.8917 13.3193 98.7634 12.7958 98.5071 12.3578C98.2613 11.9091 97.9195 11.5619 97.4815 11.3162C97.0541 11.0705 96.568 10.9476 96.0232 10.9476C95.489 10.9476 95.0029 11.0705 94.5649 11.3162C94.1376 11.5619 93.7957 11.9091 93.5393 12.3578C93.2936 12.7958 93.1707 13.3193 93.1707 13.9283C93.1707 14.5265 93.2936 15.0554 93.5393 15.5147C93.7957 15.9634 94.1376 16.3106 94.5649 16.5564C95.0029 16.8021 95.489 16.9249 96.0232 16.9249Z" fill="white"/>
<path d="M106.209 18.271C105.355 18.271 104.596 18.0841 103.934 17.7102C103.271 17.3362 102.748 16.8234 102.363 16.1718C101.979 15.5094 101.786 14.7616 101.786 13.9283C101.786 13.0843 101.979 12.3365 102.363 11.6848C102.748 11.0331 103.271 10.5256 103.934 10.1624C104.596 9.7885 105.355 9.60154 106.209 9.60154C107.053 9.60154 107.806 9.7885 108.469 10.1624C109.142 10.5256 109.665 11.0331 110.039 11.6848C110.424 12.3258 110.616 13.0736 110.616 13.9283C110.616 14.7723 110.424 15.5201 110.039 16.1718C109.665 16.8234 109.142 17.3362 108.469 17.7102C107.806 18.0841 107.053 18.271 106.209 18.271ZM106.209 16.9249C106.754 16.9249 107.24 16.8021 107.668 16.5564C108.106 16.3106 108.447 15.9634 108.693 15.5147C108.939 15.0554 109.062 14.5265 109.062 13.9283C109.062 13.3193 108.939 12.7958 108.693 12.3578C108.447 11.9091 108.106 11.5619 107.668 11.3162C107.24 11.0705 106.754 10.9476 106.209 10.9476C105.664 10.9476 105.178 11.0705 104.751 11.3162C104.324 11.5619 103.982 11.9091 103.725 12.3578C103.469 12.7958 103.341 13.3193 103.341 13.9283C103.341 14.5265 103.469 15.0554 103.725 15.5147C103.982 15.9634 104.324 16.3106 104.751 16.5564C105.178 16.8021 105.664 16.9249 106.209 16.9249Z" fill="white"/>
<path d="M117.279 9.60154C117.973 9.60154 118.582 9.73508 119.106 10.0022C119.64 10.2692 120.056 10.6752 120.356 11.2201C120.655 11.7649 120.804 12.454 120.804 13.2873V18.1749H119.266V13.4636C119.266 12.6409 119.063 12.0213 118.657 11.6047C118.262 11.188 117.701 10.9797 116.974 10.9797C116.429 10.9797 115.954 11.0865 115.548 11.3002C115.142 11.5139 114.827 11.829 114.603 12.2457C114.389 12.6623 114.282 13.1804 114.282 13.8001V18.1749H112.744V9.68167H114.218V11.9732L113.978 11.3643C114.255 10.8088 114.683 10.3761 115.26 10.0663C115.837 9.75645 116.51 9.60154 117.279 9.60154Z" fill="white"/>
<path d="M127.161 18.271C126.338 18.271 125.601 18.0894 124.949 17.7262C124.308 17.363 123.801 16.8555 123.427 16.2038C123.053 15.5521 122.866 14.7936 122.866 13.9283C122.866 13.0629 123.053 12.3098 123.427 11.6688C123.801 11.0171 124.308 10.5096 124.949 10.1464C125.601 9.78316 126.338 9.60154 127.161 9.60154C127.877 9.60154 128.523 9.76179 129.1 10.0823C129.677 10.4028 130.136 10.8835 130.478 11.5245C130.83 12.1655 131.007 12.9668 131.007 13.9283C131.007 14.8898 130.836 15.691 130.494 16.332C130.163 16.973 129.709 17.4591 129.132 17.7903C128.555 18.1108 127.898 18.271 127.161 18.271ZM127.289 16.9249C127.823 16.9249 128.304 16.8021 128.731 16.5564C129.169 16.3106 129.511 15.9634 129.757 15.5147C130.013 15.0554 130.141 14.5265 130.141 13.9283C130.141 13.3193 130.013 12.7958 129.757 12.3578C129.511 11.9091 129.169 11.5619 128.731 11.3162C128.304 11.0705 127.823 10.9476 127.289 10.9476C126.744 10.9476 126.258 11.0705 125.831 11.3162C125.403 11.5619 125.061 11.9091 124.805 12.3578C124.549 12.7958 124.42 13.3193 124.42 13.9283C124.42 14.5265 124.549 15.0554 124.805 15.5147C125.061 15.9634 125.403 16.3106 125.831 16.5564C126.258 16.8021 126.744 16.9249 127.289 16.9249ZM130.189 18.1749V15.8833L130.286 13.9122L130.125 11.9412V6.28438H131.664V18.1749H130.189Z" fill="white"/>
<path d="M138.356 18.271C137.448 18.271 136.647 18.0841 135.953 17.7102C135.269 17.3362 134.735 16.8234 134.35 16.1718C133.976 15.5201 133.789 14.7723 133.789 13.9283C133.789 13.0843 133.971 12.3365 134.334 11.6848C134.708 11.0331 135.216 10.5256 135.857 10.1624C136.508 9.7885 137.24 9.60154 138.052 9.60154C138.875 9.60154 139.601 9.78316 140.231 10.1464C140.862 10.5096 141.353 11.0224 141.706 11.6848C142.069 12.3365 142.25 13.1003 142.25 13.9763C142.25 14.0404 142.245 14.1152 142.234 14.2007C142.234 14.2862 142.229 14.3663 142.218 14.4411H134.991V13.3354H141.417L140.792 13.72C140.803 13.1751 140.691 12.689 140.456 12.2617C140.221 11.8344 139.895 11.5032 139.478 11.2681C139.072 11.0224 138.597 10.8996 138.052 10.8996C137.518 10.8996 137.042 11.0224 136.626 11.2681C136.209 11.5032 135.883 11.8397 135.648 12.2777C135.413 12.705 135.296 13.1965 135.296 13.752V14.0084C135.296 14.5746 135.424 15.0821 135.68 15.5308C135.947 15.9688 136.316 16.3106 136.786 16.5564C137.256 16.8021 137.796 16.9249 138.404 16.9249C138.907 16.9249 139.361 16.8395 139.767 16.6685C140.183 16.4976 140.546 16.2412 140.856 15.8993L141.706 16.8929C141.321 17.3416 140.84 17.6834 140.263 17.9185C139.697 18.1535 139.062 18.271 138.356 18.271Z" fill="white"/>
<path d="M148.922 9.60154C149.616 9.60154 150.225 9.73508 150.749 10.0022C151.283 10.2692 151.699 10.6752 151.999 11.2201C152.298 11.7649 152.447 12.454 152.447 13.2873V18.1749H150.909V13.4636C150.909 12.6409 150.706 12.0213 150.3 11.6047C149.905 11.188 149.344 10.9797 148.617 10.9797C148.072 10.9797 147.597 11.0865 147.191 11.3002C146.785 11.5139 146.47 11.829 146.246 12.2457C146.032 12.6623 145.925 13.1804 145.925 13.8001V18.1749H144.387V9.68167H145.861V11.9732L145.621 11.3643C145.898 10.8088 146.326 10.3761 146.903 10.0663C147.479 9.75645 148.153 9.60154 148.922 9.60154Z" fill="white"/>
<path d="M158.996 18.271C158.131 18.271 157.356 18.0841 156.672 17.7102C155.999 17.3362 155.471 16.8234 155.086 16.1718C154.701 15.5201 154.509 14.7723 154.509 13.9283C154.509 13.0843 154.701 12.3365 155.086 11.6848C155.471 11.0331 155.999 10.5256 156.672 10.1624C157.356 9.7885 158.131 9.60154 158.996 9.60154C159.765 9.60154 160.449 9.75645 161.047 10.0663C161.656 10.3654 162.126 10.8141 162.457 11.4124L161.288 12.1655C161.01 11.7489 160.668 11.4444 160.262 11.2521C159.867 11.0491 159.439 10.9476 158.98 10.9476C158.424 10.9476 157.928 11.0705 157.49 11.3162C157.052 11.5619 156.704 11.9091 156.448 12.3578C156.192 12.7958 156.063 13.3193 156.063 13.9283C156.063 14.5372 156.192 15.066 156.448 15.5147C156.704 15.9634 157.052 16.3106 157.49 16.5564C157.928 16.8021 158.424 16.9249 158.98 16.9249C159.439 16.9249 159.867 16.8288 160.262 16.6365C160.668 16.4335 161.01 16.1237 161.288 15.707L162.457 16.4442C162.126 17.0318 161.656 17.4858 161.047 17.8063C160.449 18.1161 159.765 18.271 158.996 18.271Z" fill="white"/>
<path d="M168.106 18.271C167.198 18.271 166.396 18.0841 165.702 17.7102C165.018 17.3362 164.484 16.8234 164.1 16.1718C163.726 15.5201 163.539 14.7723 163.539 13.9283C163.539 13.0843 163.72 12.3365 164.084 11.6848C164.457 11.0331 164.965 10.5256 165.606 10.1624C166.258 9.7885 166.989 9.60154 167.801 9.60154C168.624 9.60154 169.35 9.78316 169.981 10.1464C170.611 10.5096 171.102 11.0224 171.455 11.6848C171.818 12.3365 172 13.1003 172 13.9763C172 14.0404 171.995 14.1152 171.984 14.2007C171.984 14.2862 171.979 14.3663 171.968 14.4411H164.741V13.3354H171.167L170.542 13.72C170.552 13.1751 170.44 12.689 170.205 12.2617C169.97 11.8344 169.644 11.5032 169.228 11.2681C168.822 11.0224 168.346 10.8996 167.801 10.8996C167.267 10.8996 166.792 11.0224 166.375 11.2681C165.958 11.5032 165.633 11.8397 165.398 12.2777C165.163 12.705 165.045 13.1965 165.045 13.752V14.0084C165.045 14.5746 165.173 15.0821 165.43 15.5308C165.697 15.9688 166.065 16.3106 166.535 16.5564C167.005 16.8021 167.545 16.9249 168.154 16.9249C168.656 16.9249 169.11 16.8395 169.516 16.6685C169.933 16.4976 170.296 16.2412 170.606 15.8993L171.455 16.8929C171.07 17.3416 170.59 17.6834 170.013 17.9185C169.447 18.1535 168.811 18.271 168.106 18.271Z" fill="white"/>
<path d="M39.7917 56.2341V45.0166H41.3942V56.2341H39.7917Z" fill="white"/>
<path d="M49.0633 47.6608C49.7577 47.6608 50.3666 47.7943 50.8901 48.0614C51.4243 48.3285 51.8409 48.7344 52.14 49.2793C52.4392 49.8241 52.5887 50.5132 52.5887 51.3465V56.2341H51.0504V51.5228C51.0504 50.7001 50.8474 50.0805 50.4414 49.6639C50.0461 49.2472 49.4852 49.0389 48.7588 49.0389C48.2139 49.0389 47.7385 49.1457 47.3326 49.3594C46.9266 49.5731 46.6114 49.8882 46.3871 50.3049C46.1734 50.7215 46.0666 51.2397 46.0666 51.8593V56.2341H44.5282V47.7409H46.0025V50.0324L45.7621 49.4235C46.0399 48.868 46.4672 48.4353 47.0441 48.1255C47.621 47.8157 48.2941 47.6608 49.0633 47.6608Z" fill="white"/>
<path d="M55.4358 56.2341V47.7409H56.9742V56.2341H55.4358ZM56.205 46.1063C55.9059 46.1063 55.6548 46.0102 55.4518 45.8179C55.2595 45.6256 55.1634 45.3906 55.1634 45.1128C55.1634 44.8243 55.2595 44.584 55.4518 44.3917C55.6548 44.1994 55.9059 44.1032 56.205 44.1032C56.5041 44.1032 56.7498 44.1994 56.9421 44.3917C57.1451 44.5733 57.2466 44.803 57.2466 45.0807C57.2466 45.3692 57.1505 45.6149 56.9582 45.8179C56.7659 46.0102 56.5148 46.1063 56.205 46.1063Z" fill="white"/>
<path d="M62.828 56.3302C61.9734 56.3302 61.311 56.1006 60.841 55.6412C60.3709 55.1818 60.1359 54.5248 60.1359 53.6701V45.882H61.6743V53.606C61.6743 54.0654 61.7864 54.4179 62.0108 54.6636C62.2458 54.9094 62.577 55.0322 63.0043 55.0322C63.4851 55.0322 63.8857 54.8987 64.2062 54.6316L64.6869 55.7373C64.4519 55.9403 64.1688 56.0899 63.8376 56.186C63.5171 56.2822 63.1806 56.3302 62.828 56.3302ZM58.6936 49.0068V47.7409H64.11V49.0068H58.6936Z" fill="white"/>
<path d="M66.5468 56.2341V47.7409H68.0852V56.2341H66.5468ZM67.316 46.1063C67.0169 46.1063 66.7658 46.0102 66.5629 45.8179C66.3706 45.6256 66.2744 45.3906 66.2744 45.1128C66.2744 44.8243 66.3706 44.584 66.5629 44.3917C66.7658 44.1994 67.0169 44.1032 67.316 44.1032C67.6152 44.1032 67.8609 44.1994 68.0532 44.3917C68.2562 44.5733 68.3576 44.803 68.3576 45.0807C68.3576 45.3692 68.2615 45.6149 68.0692 45.8179C67.8769 46.0102 67.6258 46.1063 67.316 46.1063Z" fill="white"/>
<path d="M76.2947 56.2341V54.4393L76.2146 54.1028V51.042C76.2146 50.3903 76.0223 49.8882 75.6377 49.5357C75.2638 49.1724 74.6976 48.9908 73.9391 48.9908C73.437 48.9908 72.9455 49.0763 72.4648 49.2472C71.984 49.4075 71.5781 49.6265 71.2469 49.9042L70.6059 48.7504C71.0439 48.3979 71.5674 48.1308 72.1763 47.9492C72.796 47.7569 73.4423 47.6608 74.1154 47.6608C75.2798 47.6608 76.1772 47.9439 76.8075 48.5101C77.4379 49.0763 77.753 49.9416 77.753 51.1061V56.2341H76.2947ZM73.5064 56.3302C72.8761 56.3302 72.3206 56.2234 71.8398 56.0097C71.3698 55.7961 71.0065 55.5023 70.7501 55.1284C70.4937 54.7438 70.3655 54.3111 70.3655 53.8303C70.3655 53.371 70.4724 52.9543 70.686 52.5804C70.9104 52.2065 71.2683 51.9074 71.7597 51.683C72.2618 51.4587 72.9349 51.3465 73.7788 51.3465H76.471V52.4522H73.8429C73.0737 52.4522 72.5556 52.5804 72.2885 52.8368C72.0214 53.0932 71.8879 53.403 71.8879 53.7662C71.8879 54.1829 72.0535 54.5194 72.3847 54.7758C72.7158 55.0215 73.1752 55.1444 73.7628 55.1444C74.3397 55.1444 74.8418 55.0162 75.2691 54.7598C75.7072 54.5034 76.0223 54.1295 76.2146 53.6381L76.5191 54.6957C76.3161 55.1978 75.9582 55.5984 75.4454 55.8976C74.9326 56.186 74.2863 56.3302 73.5064 56.3302Z" fill="white"/>
<path d="M80.5999 56.2341V44.3436H82.1383V56.2341H80.5999Z" fill="white"/>
<path d="M89.6036 56.2341V45.0166H91.2061V56.2341H89.6036Z" fill="white"/>
<path d="M98.8751 47.6608C99.5695 47.6608 100.178 47.7943 100.702 48.0614C101.236 48.3285 101.653 48.7344 101.952 49.2793C102.251 49.8241 102.401 50.5132 102.401 51.3465V56.2341H100.862V51.5228C100.862 50.7001 100.659 50.0805 100.253 49.6639C99.858 49.2472 99.2971 49.0389 98.5707 49.0389C98.0258 49.0389 97.5504 49.1457 97.1444 49.3594C96.7385 49.5731 96.4233 49.8882 96.199 50.3049C95.9853 50.7215 95.8785 51.2397 95.8785 51.8593V56.2341H94.3401V47.7409H95.8144V50.0324L95.574 49.4235C95.8518 48.868 96.2791 48.4353 96.856 48.1255C97.4329 47.8157 98.1059 47.6608 98.8751 47.6608Z" fill="white"/>
<path d="M108.164 56.3302C107.31 56.3302 106.647 56.1006 106.177 55.6412C105.707 55.1818 105.472 54.5248 105.472 53.6701V45.882H107.01V53.606C107.01 54.0654 107.123 54.4179 107.347 54.6636C107.582 54.9094 107.913 55.0322 108.34 55.0322C108.821 55.0322 109.222 54.8987 109.542 54.6316L110.023 55.7373C109.788 55.9403 109.505 56.0899 109.174 56.186C108.853 56.2822 108.517 56.3302 108.164 56.3302ZM104.03 49.0068V47.7409H109.446V49.0068H104.03Z" fill="white"/>
<path d="M115.383 56.3302C114.475 56.3302 113.674 56.1433 112.979 55.7694C112.296 55.3955 111.762 54.8827 111.377 54.231C111.003 53.5793 110.816 52.8315 110.816 51.9875C110.816 51.1435 110.998 50.3957 111.361 49.744C111.735 49.0923 112.242 48.5849 112.883 48.2216C113.535 47.8477 114.267 47.6608 115.079 47.6608C115.901 47.6608 116.628 47.8424 117.258 48.2056C117.888 48.5688 118.38 49.0816 118.732 49.744C119.096 50.3957 119.277 51.1595 119.277 52.0356C119.277 52.0997 119.272 52.1744 119.261 52.2599C119.261 52.3454 119.256 52.4255 119.245 52.5003H112.018V51.3946H118.444L117.819 51.7792C117.83 51.2343 117.717 50.7482 117.482 50.3209C117.247 49.8936 116.922 49.5624 116.505 49.3273C116.099 49.0816 115.624 48.9588 115.079 48.9588C114.545 48.9588 114.069 49.0816 113.652 49.3273C113.236 49.5624 112.91 49.8989 112.675 50.3369C112.44 50.7642 112.322 51.2557 112.322 51.8112V52.0676C112.322 52.6338 112.451 53.1413 112.707 53.59C112.974 54.028 113.343 54.3699 113.813 54.6156C114.283 54.8613 114.822 54.9841 115.431 54.9841C115.933 54.9841 116.387 54.8987 116.793 54.7277C117.21 54.5568 117.573 54.3004 117.883 53.9585L118.732 54.9521C118.348 55.4008 117.867 55.7427 117.29 55.9777C116.724 56.2127 116.088 56.3302 115.383 56.3302Z" fill="white"/>
<path d="M121.413 56.2341V47.7409H122.888V50.0485L122.744 49.4716C122.979 48.884 123.374 48.4353 123.929 48.1255C124.485 47.8157 125.169 47.6608 125.981 47.6608V49.1511C125.916 49.1404 125.852 49.135 125.788 49.135C125.735 49.135 125.681 49.135 125.628 49.135C124.805 49.135 124.154 49.3808 123.673 49.8722C123.192 50.3636 122.952 51.0741 122.952 52.0035V56.2341H121.413Z" fill="white"/>
<path d="M130.448 56.2341L126.731 47.7409H128.333L131.634 55.4328H130.865L134.23 47.7409H135.737L132.019 56.2341H130.448Z" fill="white"/>
<path d="M137.172 56.2341V47.7409H138.711V56.2341H137.172ZM137.942 46.1063C137.642 46.1063 137.391 46.0102 137.188 45.8179C136.996 45.6256 136.9 45.3906 136.9 45.1128C136.9 44.8243 136.996 44.584 137.188 44.3917C137.391 44.1994 137.642 44.1032 137.942 44.1032C138.241 44.1032 138.486 44.1994 138.679 44.3917C138.882 44.5733 138.983 44.803 138.983 45.0807C138.983 45.3692 138.887 45.6149 138.695 45.8179C138.502 46.0102 138.251 46.1063 137.942 46.1063Z" fill="white"/>
<path d="M145.43 56.3302C144.522 56.3302 143.721 56.1433 143.026 55.7694C142.342 55.3955 141.808 54.8827 141.424 54.231C141.05 53.5793 140.863 52.8315 140.863 51.9875C140.863 51.1435 141.044 50.3957 141.408 49.744C141.782 49.0923 142.289 48.5849 142.93 48.2216C143.582 47.8477 144.314 47.6608 145.125 47.6608C145.948 47.6608 146.675 47.8424 147.305 48.2056C147.935 48.5688 148.427 49.0816 148.779 49.744C149.142 50.3957 149.324 51.1595 149.324 52.0356C149.324 52.0997 149.319 52.1744 149.308 52.2599C149.308 52.3454 149.303 52.4255 149.292 52.5003H142.065V51.3946H148.491L147.866 51.7792C147.876 51.2343 147.764 50.7482 147.529 50.3209C147.294 49.8936 146.968 49.5624 146.552 49.3273C146.146 49.0816 145.67 48.9588 145.125 48.9588C144.591 48.9588 144.116 49.0816 143.699 49.3273C143.283 49.5624 142.957 49.8989 142.722 50.3369C142.487 50.7642 142.369 51.2557 142.369 51.8112V52.0676C142.369 52.6338 142.497 53.1413 142.754 53.59C143.021 54.028 143.389 54.3699 143.859 54.6156C144.33 54.8613 144.869 54.9841 145.478 54.9841C145.98 54.9841 146.434 54.8987 146.84 54.7277C147.257 54.5568 147.62 54.3004 147.93 53.9585L148.779 54.9521C148.395 55.4008 147.914 55.7427 147.337 55.9777C146.771 56.2127 146.135 56.3302 145.43 56.3302Z" fill="white"/>
<path d="M153.098 56.2341L149.942 47.7409H151.4L154.204 55.4328H153.515L156.432 47.7409H157.73L160.582 55.4328H159.909L162.778 47.7409H164.156L160.983 56.2341H159.508L156.832 49.2152H157.281L154.573 56.2341H153.098Z" fill="white"/>
</svg>
