<svg width="22" height="20" viewBox="0 0 22 20" fill="none" xmlns="http://www.w3.org/2000/svg">
<path d="M6.57098 6.23668H15.1323C15.2902 6.23668 15.4271 6.11028 15.4271 5.94179C15.4271 5.77331 15.3008 5.64697 15.1323 5.64697H6.57098C6.41302 5.64697 6.27612 5.77331 6.27612 5.94179C6.27612 6.11028 6.40249 6.23668 6.57098 6.23668Z" fill="white"/>
<path d="M15.4271 8.51132C15.4271 8.35336 15.3008 8.21643 15.1323 8.21643H6.57098C6.41302 8.21643 6.27612 8.34283 6.27612 8.51132C6.27612 8.6798 6.40249 8.8062 6.57098 8.8062H15.1323C15.2902 8.8062 15.4271 8.6798 15.4271 8.51132Z" fill="white"/>
<path d="M21.8192 7.7952L18.2072 5.15204V4.52023C18.2072 3.24605 17.1331 2.21406 15.8063 2.21406H14.174L11.2571 0.0868765C11.0991 -0.0289588 10.8885 -0.0289588 10.7411 0.0868765L7.82415 2.21406H6.19193C4.86508 2.21406 3.79098 3.24605 3.79098 4.52023V5.15204L0.179018 7.7952C0.063183 7.87944 0 8.00577 0 8.1532C0 8.17426 0 8.20586 0 8.22692C0 8.24798 0 8.26904 0 8.2901V19.2102C0 19.2734 0.0210619 19.3366 0.0421229 19.3893C9.65036e-07 19.4841 -0.01053 19.5999 0.0210615 19.7052C0.0842444 19.8842 0.252732 20 0.43175 20H21.5559C21.7455 20 21.9139 19.8842 21.9666 19.7052C21.9982 19.5999 21.9877 19.4841 21.9455 19.3893C21.9666 19.3366 21.9877 19.2734 21.9877 19.2102V8.2901C21.9877 8.2901 21.9877 8.24798 21.9877 8.22692C21.9877 8.20586 21.9877 8.17426 21.9877 8.1532C21.9877 8.0163 21.9139 7.88999 21.8086 7.80574L21.8192 7.7952ZM18.2072 6.24719L20.8293 8.16374L18.302 10.1119L18.2072 10.1751V6.24719ZM11.0044 0.981942L12.6892 2.21406H9.30895L10.9938 0.981942H11.0044ZM4.67554 4.52023C4.67554 3.73045 5.36002 3.08804 6.20246 3.08804H15.8168C16.6592 3.08804 17.3437 3.73045 17.3437 4.52023V10.8069L13.8897 13.3132C13.8265 13.3237 13.7739 13.3448 13.7212 13.3869L11.036 15.4193L8.22431 13.3869L4.67554 10.8069V4.52023ZM3.8015 6.24719V10.0908L1.18994 8.1532L3.8015 6.24719ZM0.884561 9.14307L7.22391 13.7449L0.884561 18.3468V9.14307ZM1.727 19.126L7.97158 14.2925L10.7832 16.3249C10.9412 16.4407 11.1518 16.4407 11.3097 16.3249L13.9845 14.303L20.2817 19.1366H1.73753L1.727 19.126ZM21.1242 18.3468L14.7848 13.7449L21.1242 9.14307V18.3468Z" fill="white"/>
</svg>
