<svg width="57" height="57" viewBox="0 0 57 57" fill="none" xmlns="http://www.w3.org/2000/svg">
<path d="M57 28.5C57 31.0329 56.6656 33.4847 56.0476 35.8251C52.8157 48.0235 41.7115 57 28.5 57C19.6146 57 11.6715 52.9372 6.45378 46.5645C2.42144 41.6406 0 35.3489 0 28.5C0 12.7556 12.7556 0 28.5 0C44.2444 0 57 12.7556 57 28.5Z" fill="#F7F5FF"/>
<path d="M56.0476 35.8251C52.8157 48.0235 41.7115 57 28.5 57C19.6146 57 11.6715 52.9372 6.45378 46.5645C14.792 36.3621 23.7888 35.278 23.7888 35.278C23.7888 35.278 23.5761 33.738 23.7888 33.3226C23.9408 33.0288 24.5082 32.7552 24.8121 32.6337C24.9337 32.583 25.0147 32.5526 25.0147 32.5526C25.0147 32.5526 25.4707 32.4716 26.1799 32.3601C27.6084 32.1372 30.0603 31.7725 31.965 31.6306C32.5425 31.58 33.0794 31.5597 33.5151 31.5597C33.9812 31.5597 34.3459 31.6104 34.5384 31.7016C34.7815 31.813 35.0551 32.5425 35.0551 32.5425C35.0551 32.5425 38.5809 31.9954 43.4541 32.5425C45.5007 32.7755 50.5969 33.7177 56.0578 35.815L56.0476 35.8251Z" fill="#8758E7"/>
<path d="M23.6774 19.8274C23.6774 19.8274 18.6927 18.2266 18.6623 21.9753C18.6319 26.3116 23.7787 25.8759 23.7787 25.8759L23.6774 19.8274Z" fill="#FC907E"/>
<path d="M21.6308 23.9509C21.5396 23.9509 21.4383 23.9104 21.3775 23.8192L19.5235 21.2256C19.4221 21.0837 19.4525 20.9013 19.5944 20.8C19.7362 20.6987 19.9186 20.7291 20.0199 20.871L21.874 23.4646C21.9753 23.6065 21.9449 23.7888 21.8031 23.8901C21.7524 23.9307 21.6916 23.9509 21.6207 23.9509H21.6308Z" fill="black"/>
<path d="M19.6856 23.3025C19.5336 23.3025 19.4019 23.1911 19.3816 23.029C19.3614 22.8567 19.4829 22.7149 19.6552 22.6946L21.0229 22.5427C21.1952 22.5224 21.337 22.644 21.3573 22.8162C21.3775 22.9884 21.256 23.1303 21.0837 23.1505L19.716 23.3025C19.716 23.3025 19.6957 23.3025 19.6856 23.3025Z" fill="black"/>
<path d="M33.2719 29.2497L33.7785 34.275C33.7785 34.275 31.9346 35.5009 29.5131 35.7744C26.2407 36.1392 24.954 34.2952 24.954 34.2952L24.4271 28.3885L33.2719 29.2497Z" fill="#FC907E"/>
<path d="M33.2719 29.2396C33.2719 29.2396 32.0764 33.4644 28.3075 33.2517C25.268 33.0794 24.0117 28.9053 24.0117 28.9053L33.2719 29.2396Z" fill="black"/>
<path d="M21.7727 15.8558C21.7727 15.8558 20.5265 25.268 23.5457 29.0978C26.7878 33.2112 31.2152 31.4787 32.8059 30.0096C34.9437 28.0238 35.1868 25.5315 35.1868 25.5315C35.1868 25.5315 38.4086 25.8658 39.2192 23.1911C40.0702 20.3745 37.9021 18.3786 36.3114 18.3989C34.7208 18.4191 34.5587 18.7231 34.5587 18.7231L34.7511 15.7849C34.7511 15.7849 24.1434 5.99787 21.7727 15.866V15.8558Z" fill="#FC907E"/>
<path d="M35.4401 22.8567C35.359 22.8567 35.2881 22.8263 35.2273 22.7757C35.1058 22.6541 35.1058 22.4616 35.2273 22.34L37.4765 20.0199C37.5981 19.8983 37.7906 19.8983 37.9122 20.0199C38.0338 20.1415 38.0338 20.334 37.9122 20.4556L35.663 22.7757C35.6022 22.8365 35.5211 22.8669 35.4401 22.8669V22.8567Z" fill="black"/>
<path d="M37.7197 23.029C37.669 23.029 37.6082 23.0188 37.5576 22.9884L36.0176 22.0361C35.8757 21.9449 35.8251 21.7625 35.9163 21.6106C36.0075 21.4687 36.1898 21.4181 36.3418 21.5092L37.8818 22.4616C38.0236 22.5528 38.0743 22.7352 37.9831 22.8871C37.9223 22.9783 37.821 23.029 37.7197 23.029Z" fill="black"/>
<path d="M30.4351 20.7595C30.273 20.7595 30.1312 20.6278 30.1312 20.4657L30.0805 18.9054C30.0805 18.7332 30.2021 18.5914 30.3743 18.5914C30.5466 18.5711 30.6884 18.7129 30.6884 18.8852L30.7391 20.4454C30.7391 20.6177 30.6175 20.7595 30.4452 20.7595C30.4452 20.7595 30.4453 20.7595 30.4351 20.7595Z" fill="black"/>
<path d="M24.4778 20.9824C24.3157 20.9824 24.1738 20.8507 24.1738 20.6886L24.1232 19.1283C24.1232 18.9561 24.2448 18.8143 24.417 18.8143C24.5791 18.794 24.7311 18.9358 24.7311 19.1081L24.7817 20.6683C24.7817 20.8406 24.6601 20.9824 24.4879 20.9824C24.4879 20.9824 24.4879 20.9824 24.4778 20.9824Z" fill="black"/>
<path d="M27.5983 24.8425C27.4666 24.8425 27.345 24.7615 27.3045 24.6196C26.5953 22.2184 27.193 20.1516 27.2133 20.0604C27.2639 19.8983 27.4261 19.8071 27.5882 19.8578C27.7503 19.9085 27.8414 20.0706 27.7908 20.2327C27.7908 20.2529 27.2234 22.2184 27.882 24.4373C27.9326 24.5994 27.8414 24.7716 27.6793 24.8222C27.6489 24.8222 27.6186 24.8324 27.5882 24.8324L27.5983 24.8425Z" fill="black"/>
<path d="M23.414 17.8011C23.343 17.8011 23.262 17.7707 23.2012 17.72C23.0796 17.5985 23.0796 17.406 23.1911 17.2844C23.8091 16.636 24.9337 16.5448 24.9844 16.5347C25.1465 16.5245 25.2984 16.6461 25.3086 16.8183C25.3187 16.9906 25.1971 17.1324 25.0249 17.1425C25.0249 17.1425 24.0826 17.2236 23.6267 17.6998C23.5659 17.7606 23.4849 17.791 23.4038 17.791L23.414 17.8011Z" fill="black"/>
<path d="M31.0835 17.6795C31.0329 17.6795 30.9822 17.6694 30.9316 17.639C30.3642 17.3047 29.4422 17.487 29.4321 17.487C29.27 17.5174 29.1079 17.4161 29.0674 17.2439C29.037 17.0818 29.1383 16.9197 29.3004 16.8791C29.351 16.8791 30.4554 16.6461 31.2254 17.102C31.3672 17.1831 31.4179 17.3756 31.3368 17.5174C31.276 17.6187 31.1747 17.6694 31.0734 17.6694L31.0835 17.6795Z" fill="black"/>
<path d="M35.2881 18.6623C35.2881 18.6623 34.5587 21.5903 34.1838 21.5092C33.8089 21.4282 34.0115 16.8893 35.0551 16.6056C36.1088 16.3219 35.2881 18.6521 35.2881 18.6521V18.6623Z" fill="black"/>
<path d="M28.0542 27.497C27.8921 27.497 27.7604 27.3653 27.7503 27.2032C27.7503 27.0309 27.8718 26.8891 28.0441 26.8891C28.1049 26.8891 29.6043 26.808 30.1818 25.5315C30.2528 25.3795 30.4351 25.3086 30.5871 25.3795C30.7391 25.4504 30.81 25.6328 30.7391 25.7847C29.9995 27.4159 28.1454 27.497 28.0643 27.5071C28.0643 27.5071 28.0643 27.5071 28.0542 27.5071V27.497Z" fill="black"/>
<path d="M34.7917 18.2773C34.7917 18.2773 31.58 18.1456 29.3612 16.5853C27.4868 15.2682 26.6966 13.2926 26.6966 13.2926C26.6966 13.2926 25.3187 13.1811 23.4038 14.4678C21.4991 15.7647 21.5092 19.4931 21.5092 19.4931C21.5092 19.4931 17.6086 13.3432 19.2398 11.0332C20.871 8.72325 23.7686 10.4557 23.7686 10.4557C23.7686 10.4557 23.0898 6.35247 28.8647 7.69996C34.6498 9.04746 36.1696 13.9207 36.1696 13.9207C36.1696 13.9207 38.1148 13.6674 38.4289 15.4607C38.7531 17.254 38.0946 19.1283 38.0946 19.1283C38.0946 19.1283 37.2131 18.3583 35.9264 18.8953L34.6397 19.4323L34.7714 18.2773H34.7917Z" fill="black"/>
<path d="M25.0147 32.5526C25.0147 32.5526 26.1292 33.6063 28.6925 33.6671C31.2558 33.7279 33.5151 31.6509 33.5151 31.6509L35.1767 34.6904L31.0835 37.1928L24.2144 36.6154V33.5354L25.0147 32.5425L25.0147 32.5526Z" fill="#8758E7"/>
<path d="M27.8414 37.5069C25.0654 37.5069 23.5457 35.4705 23.5254 35.4502C23.4241 35.3185 23.4545 35.126 23.5963 35.0247C23.728 34.9234 23.9205 34.9538 24.0219 35.0956C24.1029 35.2071 25.9874 37.7197 29.5233 36.6356C29.6854 36.585 29.8576 36.6761 29.9083 36.8382C29.9589 37.0003 29.8678 37.1726 29.7056 37.2232C29.037 37.4259 28.4088 37.5171 27.8414 37.5171V37.5069Z" fill="white"/>
</svg>
