<svg width="25" height="22" viewBox="0 0 25 22" fill="none" xmlns="http://www.w3.org/2000/svg">
<path d="M0 15.4335C0 15.4335 0.0200195 15.3733 0.0500498 15.3834C0.360363 15.4734 1.64166 15.8338 3.20324 15.8338C4.76481 15.8338 6.03609 15.4835 6.35642 15.3834C6.38645 15.3834 6.41648 15.4034 6.40647 15.4335C6.30637 15.8038 5.71577 17.3653 3.20324 17.3653C0.690698 17.3653 0.100101 15.8038 0 15.4335Z" fill="white"/>
<path d="M17.6179 15.4335C17.6179 15.4335 17.6379 15.3733 17.6679 15.3834C17.9783 15.4734 19.2595 15.8338 20.8211 15.8338C22.3827 15.8338 23.654 15.4835 23.9743 15.3834C24.0043 15.3834 24.0344 15.4034 24.0244 15.4335C23.9243 15.8038 23.3337 17.3653 20.8211 17.3653C18.3086 17.3653 17.718 15.8038 17.6179 15.4335Z" fill="white"/>
<path d="M6.04613 15.5435L3.20325 7.12499L0.360382 15.5435L0.0200398 15.4234L3.20325 6.02391L6.37646 15.4234L6.04613 15.5435Z" fill="white"/>
<path d="M3.37342 5.40328H3.02307V15.9239H3.37342V5.40328Z" fill="white"/>
<path d="M19.0893 4.0018H12.5427V0.858611C12.5427 0.858611 12.5427 0.838561 12.5427 0.828551L12.0822 0.0177957C12.0822 0.0177957 11.9922 -0.0222447 11.9721 0.0177957L11.5117 0.828551C11.5117 0.828551 11.5117 0.848601 11.5117 0.858611V4.0018H4.96506C2.15222 4.0018 0.690741 4.44226 0.470518 4.52234C0.460508 4.52234 0.450498 4.54239 0.470518 4.5524C0.66071 4.68254 1.82188 5.41326 3.38346 5.41326C5.09519 5.41326 5.62572 4.84261 6.23634 4.84261H11.2914V20.0681H8.63877C8.37851 20.0681 8.11824 20.1481 7.89802 20.2983L6.91703 20.9789C6.91703 20.9789 6.89701 21.0591 6.94706 21.0591H17.1173C17.1173 21.0591 17.1774 20.9989 17.1474 20.9789L16.1664 20.2983C15.9461 20.1481 15.6959 20.0681 15.4256 20.0681H12.7729V4.84261H17.828C18.4387 4.84261 18.9692 5.41326 20.6809 5.41326C22.2525 5.41326 23.4137 4.68254 23.5939 4.5524C23.6039 4.5524 23.5939 4.53236 23.5939 4.52234C23.3636 4.45227 21.9122 4.0018 19.0993 4.0018H19.0893Z" fill="white"/>
<path d="M23.6638 15.5435L20.8209 7.12499L17.978 15.5435L17.6477 15.4234L20.8209 6.02391L24.0041 15.4234L23.6638 15.5435Z" fill="white"/>
<path d="M21.0011 5.40328H20.6507V15.9239H21.0011V5.40328Z" fill="white"/>
<path d="M17.798 21.2492H6.2563C6.24524 21.2492 6.23628 21.2582 6.23628 21.2693V21.98C6.23628 21.991 6.24524 22 6.2563 22H17.798C17.809 22 17.818 21.991 17.818 21.98V21.2693C17.818 21.2582 17.809 21.2492 17.798 21.2492Z" fill="white"/>
</svg>
