<svg width="36" height="21" viewBox="0 0 36 21" fill="none" xmlns="http://www.w3.org/2000/svg">
<path d="M27.1072 10.2271C27.5073 11.4174 28.2175 12.2376 29.3678 12.2376C30.5181 12.2376 31.2283 11.4174 31.6284 10.2271C31.9785 10.2571 32.2285 9.85694 32.3886 9.32679C32.6286 8.52658 32.3686 8.24657 32.0185 8.14655C32.0185 8.14655 32.0185 8.13652 32.0185 8.12652C32.0185 8.12652 32.1685 6.96619 31.9485 6.35603C31.8284 6.02594 31.6384 5.92596 31.4583 5.90596C31.0982 5.23578 30.198 5.03562 29.7179 4.92559C27.3672 4.37545 27.3372 5.8559 27.3372 5.8559C27.3372 5.8559 26.7771 5.72588 26.6971 6.37605C26.617 7.02623 26.6971 8.12652 26.6971 8.12652C26.6971 8.12652 26.6971 8.13654 26.6971 8.14655C26.347 8.24657 26.0869 8.52658 26.327 9.32679C26.487 9.85694 26.7371 10.2471 27.0872 10.2271H27.1072Z" fill="white"/>
<path d="M4.07099 10.2271C4.47109 11.4175 5.18128 12.2377 6.33159 12.2377C7.4819 12.2377 8.19209 11.4175 8.59219 10.2271C8.94229 10.2572 9.19236 9.85702 9.3524 9.32688C9.60247 8.52667 9.3324 8.24666 8.9823 8.14663C8.9823 8.14663 8.9823 8.13661 8.9823 8.12661C8.9823 8.12661 9.06232 7.02631 8.9823 6.37614C8.90228 5.72597 8.34213 5.85598 8.34213 5.85598C8.34213 5.85598 8.31212 4.38553 5.96149 4.92568C5.48136 5.03571 4.59113 5.23586 4.22103 5.90604C4.05098 5.92605 3.85093 6.02603 3.7309 6.35611C3.51084 6.96628 3.66088 8.12661 3.66088 8.12661C3.66088 8.12661 3.66088 8.13663 3.66088 8.14663C3.31078 8.24666 3.05071 8.52667 3.29078 9.32688C3.45082 9.85702 3.70089 10.2471 4.05098 10.2271H4.07099Z" fill="white"/>
<path d="M20.9256 11.7475L19.1851 17.679L18.3549 13.4479L19.1251 11.7475H16.5744L17.3446 13.4479L16.5144 17.679L14.774 11.7475L10.5028 13.2879C10.2027 14.0281 9.25247 20.0597 9.25247 20.0597C9.25247 20.0597 13.6036 21 17.8548 21C23.5263 21 26.4571 20.0597 26.4571 20.0597C26.4571 20.0597 25.5068 14.0281 25.2067 13.2879L20.9356 11.7475H20.9256Z" fill="white"/>
<path d="M8.66232 20.1298L8.68232 19.9797C8.81235 19.1495 9.38251 15.5585 9.75261 13.8681L8.58229 13.4479L7.30195 17.8091L6.69179 14.6983L7.26194 13.4479H5.39144L5.95159 14.6983L5.34143 17.8091L4.06109 13.4479L0.920246 14.5782C0.700187 15.1184 0 19.5495 0 19.5495C0 19.5495 2.15057 20.2398 6.31169 20.2398C7.1019 20.2398 7.89211 20.1998 8.64231 20.1298H8.66232Z" fill="white"/>
<path d="M34.7692 14.5782L31.6284 13.4479L30.348 17.8091L29.7379 14.6983L30.298 13.4479H28.4275L28.9977 14.6983L28.3875 17.8091L27.1072 13.4479L25.9369 13.8681C26.307 15.5585 26.8771 19.1495 27.0072 19.9797L27.0272 20.1298C27.7674 20.1998 28.5676 20.2398 29.3478 20.2398C33.5089 20.2398 35.6595 19.5495 35.6595 19.5495C35.6595 19.5495 34.9593 15.1184 34.7392 14.5782H34.7692Z" fill="white"/>
<path d="M14.7739 7.38634C15.324 9.00677 16.2843 10.1271 17.8547 10.1271C19.4251 10.1271 20.3854 9.01678 20.9355 7.38634C21.4157 7.42635 21.7458 6.87611 21.9658 6.16592C22.2959 5.07563 21.9458 4.69554 21.4657 4.55551C21.4657 4.55551 21.4657 4.53559 21.4657 4.52559C21.4657 4.52559 21.6657 2.94513 21.3657 2.11491C21.2056 1.67479 20.9355 1.53477 20.7055 1.50476C20.2153 0.594519 18.995 0.314357 18.3448 0.164316C15.144 -0.575881 15.104 1.42466 15.104 1.42466C15.104 1.42466 14.3438 1.2547 14.2337 2.13494C14.1337 3.01517 14.2337 4.52559 14.2337 4.52559V4.54549C13.7536 4.68553 13.3935 5.06574 13.7336 6.15603C13.9537 6.87622 14.2838 7.41634 14.7639 7.37633L14.7739 7.38634Z" fill="white"/>
</svg>
