<svg width="16" height="25" viewBox="0 0 16 25" fill="none" xmlns="http://www.w3.org/2000/svg">
<path fill-rule="evenodd" clip-rule="evenodd" d="M12.3766 12.9735C12.4466 12.9735 12.5067 12.9535 12.5767 12.9535C13.3671 12.9535 13.7673 12.5533 13.7773 11.7528C13.7873 10.9724 14.1375 10.3821 14.8079 9.97193C15.4882 9.58172 15.6283 9.03141 15.2481 8.33104C14.8679 7.66068 14.8679 6.96032 15.2481 6.27996C15.6283 5.5996 15.4882 5.05931 14.8079 4.64909C14.1275 4.24888 13.7873 3.65853 13.7773 2.86811C13.7773 2.0877 13.3771 1.69755 12.5767 1.67754C11.7963 1.66753 11.206 1.31732 10.7857 0.646959C10.3955 -0.0233979 9.83523 -0.183476 9.16488 0.216737C8.46451 0.59694 7.79415 0.59694 7.09378 0.216737C6.41341 -0.183476 5.86312 -0.0233979 5.46291 0.646959C5.06269 1.31732 4.47238 1.66753 3.68196 1.67754C2.89154 1.68754 2.49133 2.07769 2.48132 2.86811C2.47131 3.66854 2.12113 4.24888 1.44077 4.64909C0.770409 5.05931 0.610323 5.5996 1.01054 6.27996C1.39074 6.97033 1.39074 7.66068 1.01054 8.33104C0.610323 9.03141 0.770409 9.58172 1.44077 9.97193C2.12113 10.3821 2.46131 10.9724 2.48132 11.7528C2.48132 12.3131 2.69143 12.6634 3.07163 12.8435L0 23.4991L3.63193 20.7176L5.22278 24.9999L7.7041 16.3753L10.1754 24.9999L11.7763 20.7176L15.3982 23.4991L12.3666 12.9635L12.3766 12.9735ZM8.13433 4.49898L8.68462 6.45004H10.5156L9.03481 7.65069L9.60511 9.60174L8.13433 8.39107L6.65354 9.60174L7.22384 7.65069L5.74305 6.45004H7.57403L8.14433 4.49898H8.13433ZM8.13433 11.6228C5.76306 11.6228 3.82203 9.70176 3.82203 7.32049C3.82203 4.93923 5.76306 3.01822 8.13433 3.01822C10.5056 3.01822 12.4466 4.93923 12.4466 7.32049C12.4466 9.70176 10.5156 11.6228 8.13433 11.6228Z" fill="white"/>
</svg>
