<svg width="17" height="22" viewBox="0 0 17 22" fill="none" xmlns="http://www.w3.org/2000/svg">
<path d="M13.7056 0.0309218C14.0351 0.144191 14.1381 0.380999 14.1381 0.71051C14.1381 4.60286 14.1381 8.49523 14.1381 12.3876C14.1381 12.47 14.1381 12.5626 14.1381 12.6656C14.2204 12.6656 14.3028 12.6656 14.3749 12.6759C14.6941 12.6965 14.8692 12.8612 14.9104 13.1804C14.9927 13.8188 15.1678 14.0042 15.7959 14.1072C16.1048 14.1587 16.2696 14.3543 16.249 14.6941C16.1872 15.7342 15.9813 16.7433 15.59 17.7215C14.8795 19.4926 13.6953 20.8725 12.0889 21.8919C11.8624 22.036 11.6564 22.036 11.4299 21.8919C10.3178 21.1814 9.38076 20.2855 8.68055 19.1631C8.58787 19.0086 8.4849 18.9778 8.32015 18.9778C5.79733 18.9778 3.26422 18.9778 0.7414 18.9778C0.638428 18.9778 0.525158 18.9778 0.422186 18.9572C0.18535 18.916 0.041191 18.7615 0.0102994 18.5247C2.19995e-06 18.4423 0 18.3496 0 18.2672C0 12.4081 0 6.55932 0 0.700203C0 0.380989 0.0823771 0.123567 0.401591 0H13.7159L13.7056 0.0309218ZM8.44371 13.7365H8.16569C6.43576 13.7365 4.71612 13.7365 2.98619 13.7365C2.91411 13.7365 2.84203 13.7365 2.76995 13.7365C2.5846 13.7159 2.46103 13.6232 2.44044 13.4275C2.41984 13.2422 2.53312 13.1084 2.72876 13.0672C2.81114 13.0569 2.90382 13.0569 2.98619 13.0569C4.7985 13.0569 6.61081 13.0569 8.42312 13.0569C8.4952 13.0569 8.60847 13.0363 8.63936 12.9848C8.78352 12.7376 8.99976 12.6862 9.25719 12.6862C10.4414 12.6862 11.6358 12.6862 12.82 12.6862C12.9024 12.6862 12.9848 12.6862 13.0775 12.6862V1.07089H1.00913V17.9686H7.99064C7.97004 17.8863 7.94945 17.8348 7.92885 17.773C7.7538 17.1655 7.55816 16.5579 7.4037 15.9401C7.35221 15.7238 7.26983 15.6826 7.06389 15.6826C5.69436 15.6826 4.31453 15.6826 2.945 15.6826C2.5846 15.6826 2.43014 15.5797 2.43014 15.3429C2.43014 15.106 2.5949 15.003 2.945 15.003C4.29394 15.003 5.63257 15.003 6.98151 15.003H7.23894C7.23894 14.9413 7.24924 14.9104 7.24924 14.8795C7.24924 14.2822 7.31102 14.1999 7.89796 14.0969C8.10391 14.0557 8.27896 13.963 8.42312 13.7468L8.44371 13.7365ZM15.1987 15.0648C14.4779 14.7456 14.3028 14.55 13.963 13.8086C13.9321 13.7571 13.8189 13.7056 13.7468 13.7056C12.4184 13.7056 11.1004 13.7056 9.77206 13.7056C9.6176 13.7056 9.56611 13.7571 9.51462 13.8909C9.33957 14.3852 9.01006 14.7559 8.52609 14.9619C8.35104 15.034 8.30985 15.1163 8.34074 15.2913C8.5158 16.4858 8.8865 17.6082 9.53522 18.6379C10.1119 19.5441 10.8636 20.2958 11.7594 20.9033C13.8189 19.4926 14.9001 17.5156 15.1987 15.0648Z" fill="white"/>
<path d="M7.05345 5.96201C5.69422 5.96201 4.33499 5.96201 2.97575 5.96201C2.89338 5.96201 2.8213 5.96201 2.73892 5.96201C2.57416 5.94141 2.47119 5.83846 2.4506 5.66341C2.43 5.48836 2.51238 5.35453 2.69773 5.31334C2.78011 5.29274 2.86249 5.29272 2.95516 5.29272C5.69422 5.29272 8.43328 5.29272 11.1826 5.29272C11.2547 5.29272 11.3268 5.29274 11.3989 5.31334C11.5945 5.34423 11.6872 5.47806 11.6769 5.66341C11.6769 5.84876 11.5533 5.96203 11.3577 5.98262C11.2856 5.98262 11.2135 5.98262 11.1414 5.98262C9.78221 5.98262 8.42298 5.98262 7.06375 5.98262L7.05345 5.96201Z" fill="white"/>
<path d="M7.05382 11.8006C5.68429 11.8006 4.31476 11.8006 2.95553 11.8006C2.86286 11.8006 2.74959 11.8212 2.68781 11.7697C2.59513 11.6976 2.49216 11.5844 2.46127 11.4711C2.42008 11.3166 2.52305 11.1931 2.67751 11.1519C2.75989 11.1313 2.84226 11.121 2.93494 11.121C5.69459 11.121 8.44395 11.121 11.2036 11.121C11.2654 11.121 11.3169 11.121 11.3786 11.121C11.564 11.1519 11.6773 11.2651 11.6773 11.4505C11.6773 11.6358 11.564 11.7594 11.3786 11.7903C11.3066 11.8006 11.2345 11.7903 11.1624 11.7903C9.79288 11.7903 8.42335 11.7903 7.06412 11.7903L7.05382 11.8006Z" fill="white"/>
<path d="M7.06404 4.02624C5.68421 4.02624 4.30438 4.02624 2.92456 4.02624C2.83188 4.02624 2.71861 4.0365 2.65683 3.98501C2.56416 3.90263 2.46118 3.77907 2.46118 3.6658C2.46118 3.57313 2.57445 3.44959 2.65683 3.37751C2.71861 3.32602 2.83188 3.33628 2.92456 3.33628C5.67391 3.33628 8.42327 3.33628 11.1726 3.33628C11.2447 3.33628 11.3168 3.33629 11.3889 3.34659C11.5639 3.37748 11.6669 3.50105 11.6669 3.67611C11.6669 3.86146 11.5536 3.97473 11.3683 4.00563C11.2962 4.01592 11.2241 4.00563 11.152 4.00563C9.7928 4.00563 8.43356 4.00563 7.07433 4.00563L7.06404 4.02624Z" fill="white"/>
<path d="M7.05375 9.17486C8.41298 9.17486 9.77222 9.17486 11.1314 9.17486C11.2035 9.17486 11.2756 9.17486 11.3477 9.17486C11.5433 9.19546 11.6566 9.30873 11.6669 9.49408C11.6669 9.66913 11.5845 9.79265 11.3992 9.83384C11.3271 9.85443 11.2447 9.85445 11.1623 9.85445C8.42328 9.85445 5.68422 9.85445 2.93487 9.85445C2.85249 9.85445 2.75982 9.85442 2.67744 9.82353C2.50239 9.77204 2.42001 9.64851 2.4406 9.47346C2.46119 9.29841 2.56417 9.20576 2.72892 9.17486C2.801 9.16457 2.87308 9.17486 2.94516 9.17486C4.31469 9.17486 5.68422 9.17486 7.04345 9.17486H7.05375Z" fill="white"/>
<path d="M7.04353 7.90823C5.6843 7.90823 4.32507 7.90823 2.96583 7.90823C2.87316 7.90823 2.78048 7.90827 2.68781 7.88767C2.52305 7.84649 2.44067 7.72291 2.44067 7.55816C2.44067 7.3934 2.53335 7.29038 2.68781 7.24919C2.77019 7.22859 2.86286 7.22864 2.94524 7.22864C5.6843 7.22864 8.41306 7.22864 11.1521 7.22864C11.5022 7.22864 11.667 7.34186 11.667 7.5684C11.667 7.79494 11.5022 7.90823 11.1418 7.90823C9.77229 7.90823 8.40276 7.90823 7.04353 7.90823Z" fill="white"/>
<path d="M13.9216 16.6198C13.9216 17.804 12.9228 18.8028 11.7386 18.7822C10.5544 18.7719 9.57617 17.773 9.57617 16.5888C9.57617 15.415 10.575 14.4368 11.7489 14.4368C12.9434 14.4368 13.9216 15.4253 13.9113 16.6095L13.9216 16.6198ZM11.4606 16.7536C11.3679 16.6404 11.2958 16.5374 11.2134 16.4653C11.059 16.3211 10.8736 16.3211 10.7295 16.455C10.5956 16.5785 10.5956 16.7845 10.7295 16.939C10.8839 17.114 11.059 17.2788 11.234 17.4435C11.3576 17.5568 11.5223 17.6083 11.6459 17.495C12.0475 17.1243 12.4388 16.733 12.8095 16.3314C12.9228 16.2079 12.8816 16.0431 12.7683 15.9196C12.6447 15.796 12.5006 15.7857 12.3564 15.8783C12.2946 15.9195 12.2329 15.971 12.1814 16.0328C11.9548 16.2594 11.7283 16.4962 11.4606 16.7639V16.7536Z" fill="white"/>
</svg>
