<svg width="21" height="20" viewBox="0 0 21 20" fill="none" xmlns="http://www.w3.org/2000/svg">
<path d="M7.04362 12.7683C7.04362 14.1707 5.90286 15.3114 4.50045 15.3114C3.09804 15.3114 1.95728 14.1707 1.95728 12.7683C1.95728 11.3659 3.09804 10.2251 4.50045 10.2251C5.90286 10.2251 7.04362 11.3659 7.04362 12.7683Z" fill="white"/>
<path d="M7.1167 15.4056C6.44689 16.0754 5.52591 16.4836 4.50026 16.4836C3.47462 16.4836 2.5641 16.0754 1.88383 15.4056C0.763998 16.044 0 17.2476 0 18.629V19.414C0 19.7384 0.261641 20 0.586078 20H8.39352C8.71796 20 8.9796 19.7384 8.9796 19.414V18.629C8.9796 17.2476 8.22606 16.044 7.09577 15.4056H7.1167Z" fill="white"/>
<path d="M18.0636 12.7683C18.0636 14.1707 16.9229 15.3114 15.5205 15.3114C14.1181 15.3114 12.9773 14.1707 12.9773 12.7683C12.9773 11.3659 14.1181 10.2251 15.5205 10.2251C16.9229 10.2251 18.0636 11.3659 18.0636 12.7683Z" fill="white"/>
<path d="M18.137 15.4056C17.4672 16.0754 16.5462 16.4836 15.5205 16.4836C14.4949 16.4836 13.5844 16.0754 12.9041 15.4056C11.7843 16.044 11.0203 17.2476 11.0203 18.629V19.414C11.0203 19.7384 11.2819 20 11.6063 20H19.4138C19.7382 20 19.9999 19.7384 19.9999 19.414V18.629C19.9999 17.2476 19.2463 16.044 18.116 15.4056H18.137Z" fill="white"/>
<path d="M4.51079 0C2.03042 0 0.0209961 2.00946 0.0209961 4.48984C0.0209961 6.97022 2.03042 8.97962 4.51079 8.97962C6.99117 8.97962 9.0006 6.97022 9.0006 4.48984C9.0006 2.00946 6.99117 0 4.51079 0ZM6.47835 3.87233L4.27008 6.08059C4.03984 6.31083 3.67354 6.31083 3.44329 6.08059L2.33392 4.97122C2.10368 4.74098 2.10368 4.3747 2.33392 4.14445C2.56417 3.91421 2.93047 3.91421 3.16072 4.14445L3.85146 4.83516L5.65156 3.03509C5.88181 2.80484 6.24811 2.80484 6.47835 3.03509C6.7086 3.26533 6.7086 3.63161 6.47835 3.86186V3.87233Z" fill="white"/>
<path d="M15.5208 8.97962C18.0012 8.97962 20.0106 6.97022 20.0106 4.48984C20.0106 2.00946 18.0012 0 15.5208 0C13.0404 0 11.031 2.00946 11.031 4.48984C11.031 6.97022 13.0404 8.97962 15.5208 8.97962ZM14.0033 3.79907C13.773 3.56882 13.773 3.20254 14.0033 2.9723C14.2335 2.74205 14.5998 2.74205 14.8301 2.9723L15.5208 3.66301L16.2115 2.9723C16.4418 2.74205 16.8081 2.74205 17.0383 2.9723C17.2686 3.20254 17.2686 3.56882 17.0383 3.79907L16.3476 4.48984L17.0383 5.18055C17.2686 5.4108 17.2686 5.77707 17.0383 6.00732C16.8081 6.23757 16.4418 6.23757 16.2115 6.00732L15.5208 5.31661L14.8301 6.00732C14.5998 6.23757 14.2335 6.23757 14.0033 6.00732C13.773 5.77707 13.773 5.4108 14.0033 5.18055L14.694 4.48984L14.0033 3.79907Z" fill="white"/>
</svg>
