<svg width="18" height="22" viewBox="0 0 18 22" fill="none" xmlns="http://www.w3.org/2000/svg">
<path d="M1.68445 0C0.755448 0 0 0.755413 0 1.68441V20.3155C0 21.2445 0.755448 21.9999 1.68445 21.9999H15.6807C16.6097 21.9999 17.3652 21.2445 17.3652 20.3155V1.68441C17.3652 0.755413 16.6097 0 15.6807 0H1.68445ZM16.773 1.68441V20.3155C16.773 20.9178 16.283 21.4078 15.6807 21.4078H1.68445C1.08213 21.4078 0.592108 20.9178 0.592108 20.3155V1.68441C0.592108 1.08209 1.08213 0.592065 1.68445 0.592065H15.6807C16.283 0.592065 16.773 1.08209 16.773 1.68441Z" fill="white"/>
<path d="M15.3029 2.5522H2.07226C1.84767 2.5522 1.66391 2.73592 1.66391 2.96051V7.04403C1.66391 7.26862 1.84767 7.45241 2.07226 7.45241H15.3029C15.5275 7.45241 15.7112 7.26862 15.7112 7.04403V2.96051C15.7112 2.73592 15.5275 2.5522 15.3029 2.5522ZM14.8945 6.63572H2.48062V3.36889H14.8945V6.63572Z" fill="white"/>
<path d="M14.18 14.9355H11.6482C11.4237 14.9355 11.2399 15.1192 11.2399 15.3438V19.8765C11.2399 20.1011 11.4237 20.2849 11.6482 20.2849H14.18C14.4046 20.2849 14.5884 20.1011 14.5884 19.8765V15.3438C14.5884 15.1192 14.4046 14.9355 14.18 14.9355ZM13.7717 19.4682H12.0566V15.7419H13.7717V19.4682Z" fill="white"/>
<path d="M12.179 10.7702H13.6388C14.088 10.7702 14.4453 10.3414 14.4453 9.82079C14.4453 9.30014 14.0778 8.87138 13.6388 8.87138H12.179C11.7298 8.87138 11.3725 9.30014 11.3725 9.82079C11.3725 10.3414 11.74 10.7702 12.179 10.7702ZM12.179 9.2797H13.6388C13.8532 9.2797 14.0472 9.52474 14.0472 9.82079C14.0472 10.1168 13.8634 10.3618 13.6388 10.3618H12.179C11.9646 10.3618 11.7706 10.1168 11.7706 9.82079C11.7706 9.52474 11.9544 9.2797 12.179 9.2797Z" fill="white"/>
<path d="M12.179 13.8124H13.6388C14.088 13.8124 14.4453 13.3836 14.4453 12.863C14.4453 12.3423 14.0778 11.9136 13.6388 11.9136H12.179C11.7298 11.9136 11.3725 12.3423 11.3725 12.863C11.3725 13.3836 11.74 13.8124 12.179 13.8124ZM12.179 12.322H13.6388C13.8532 12.322 14.0472 12.5669 14.0472 12.863C14.0472 13.159 13.8634 13.4041 13.6388 13.4041H12.179C11.9646 13.4041 11.7706 13.159 11.7706 12.863C11.7706 12.5669 11.9544 12.322 12.179 12.322Z" fill="white"/>
<path d="M9.5147 8.87138H8.05484C7.60565 8.87138 7.24834 9.30014 7.24834 9.82079C7.24834 10.3414 7.61586 10.7702 8.05484 10.7702H9.5147C9.96388 10.7702 10.3212 10.3414 10.3212 9.82079C10.3212 9.30014 9.95367 8.87138 9.5147 8.87138ZM9.5147 10.3618H8.05484C7.84045 10.3618 7.64649 10.1168 7.64649 9.82079C7.64649 9.52474 7.83025 9.2797 8.05484 9.2797H9.5147C9.72908 9.2797 9.92305 9.52474 9.92305 9.82079C9.92305 10.1168 9.73929 10.3618 9.5147 10.3618Z" fill="white"/>
<path d="M9.5147 11.8626H8.05484C7.60565 11.8626 7.24834 12.2914 7.24834 12.812C7.24834 13.3327 7.61586 13.7614 8.05484 13.7614H9.5147C9.96388 13.7614 10.3212 13.3327 10.3212 12.812C10.3212 12.2914 9.95367 11.8626 9.5147 11.8626ZM9.5147 13.3531H8.05484C7.84045 13.3531 7.64649 13.1081 7.64649 12.812C7.64649 12.516 7.83025 12.2709 8.05484 12.2709H9.5147C9.72908 12.2709 9.92305 12.516 9.92305 12.812C9.92305 13.1081 9.73929 13.3531 9.5147 13.3531Z" fill="white"/>
<path d="M5.3903 8.87138H3.93044C3.48126 8.87138 3.12395 9.30014 3.12395 9.82079C3.12395 10.3414 3.49146 10.7702 3.93044 10.7702H5.3903C5.83949 10.7702 6.1968 10.3414 6.1968 9.82079C6.1968 9.30014 5.82928 8.87138 5.3903 8.87138ZM5.3903 10.3618H3.93044C3.71606 10.3618 3.52209 10.1168 3.52209 9.82079C3.52209 9.52474 3.70585 9.2797 3.93044 9.2797H5.3903C5.60468 9.2797 5.79865 9.52474 5.79865 9.82079C5.79865 10.1168 5.61489 10.3618 5.3903 10.3618Z" fill="white"/>
<path d="M5.3903 11.8626H3.93044C3.48126 11.8626 3.12395 12.2914 3.12395 12.812C3.12395 13.3327 3.49146 13.7614 3.93044 13.7614H5.3903C5.83949 13.7614 6.1968 13.3327 6.1968 12.812C6.1968 12.2914 5.82928 11.8626 5.3903 11.8626ZM5.3903 13.3531H3.93044C3.71606 13.3531 3.52209 13.1081 3.52209 12.812C3.52209 12.516 3.70585 12.2709 3.93044 12.2709H5.3903C5.60468 12.2709 5.79865 12.516 5.79865 12.812C5.79865 13.1081 5.61489 13.3531 5.3903 13.3531Z" fill="white"/>
<path d="M5.3903 14.8538H3.93044C3.48126 14.8538 3.12395 15.2826 3.12395 15.8033C3.12395 16.3239 3.49146 16.7527 3.93044 16.7527H5.3903C5.83949 16.7527 6.1968 16.3239 6.1968 15.8033C6.1968 15.2826 5.82928 14.8538 5.3903 14.8538ZM5.3903 16.3444H3.93044C3.71606 16.3444 3.52209 16.0993 3.52209 15.8033C3.52209 15.5072 3.70585 15.2622 3.93044 15.2622H5.3903C5.60468 15.2622 5.79865 15.5072 5.79865 15.8033C5.79865 16.0993 5.61489 16.3444 5.3903 16.3444Z" fill="white"/>
<path d="M5.3903 17.8347H3.93044C3.48126 17.8347 3.12395 18.2635 3.12395 18.7841C3.12395 19.3048 3.49146 19.7336 3.93044 19.7336H5.3903C5.83949 19.7336 6.1968 19.3048 6.1968 18.7841C6.1968 18.2635 5.82928 17.8347 5.3903 17.8347ZM5.3903 19.3252H3.93044C3.71606 19.3252 3.52209 19.0802 3.52209 18.7841C3.52209 18.4881 3.70585 18.2431 3.93044 18.2431H5.3903C5.60468 18.2431 5.79865 18.4881 5.79865 18.7841C5.79865 19.0802 5.61489 19.3252 5.3903 19.3252Z" fill="white"/>
<path d="M9.42273 14.8538H7.96287C7.51368 14.8538 7.15637 15.2826 7.15637 15.8033C7.15637 16.3239 7.52389 16.7527 7.96287 16.7527H9.42273C9.87191 16.7527 10.2292 16.3239 10.2292 15.8033C10.2292 15.2826 9.86171 14.8538 9.42273 14.8538ZM9.42273 16.3444H7.96287C7.74849 16.3444 7.55452 16.0993 7.55452 15.8033C7.55452 15.5072 7.73828 15.2622 7.96287 15.2622H9.42273C9.63711 15.2622 9.83108 15.5072 9.83108 15.8033C9.83108 16.0993 9.64732 16.3444 9.42273 16.3444Z" fill="white"/>
<path d="M9.42273 17.8347H7.96287C7.51368 17.8347 7.15637 18.2635 7.15637 18.7841C7.15637 19.3048 7.52389 19.7336 7.96287 19.7336H9.42273C9.87191 19.7336 10.2292 19.3048 10.2292 18.7841C10.2292 18.2635 9.86171 17.8347 9.42273 17.8347ZM9.42273 19.3252H7.96287C7.74849 19.3252 7.55452 19.0802 7.55452 18.7841C7.55452 18.4881 7.73828 18.2431 7.96287 18.2431H9.42273C9.63711 18.2431 9.83108 18.4881 9.83108 18.7841C9.83108 19.0802 9.64732 19.3252 9.42273 19.3252Z" fill="white"/>
</svg>
