<svg width="14" height="21" viewBox="0 0 14 21" fill="none" xmlns="http://www.w3.org/2000/svg">
<path d="M12.9447 11.1055H11.5678V5.94975C11.5678 3.42714 9.51757 1.37689 6.99496 1.37689C4.47234 1.37689 2.42209 3.42714 2.42209 5.94975V11.1055H1.0452V5.94975C1.0452 2.67337 3.70852 0 6.99496 0C10.2814 0 12.9447 2.66332 12.9447 5.94975V11.1055Z" fill="white"/>
<path d="M12.8844 8.95475H1.11558C0.492462 8.95475 0 9.45726 0 10.0703V19.4975C0 20.1206 0.502512 20.613 1.11558 20.613H12.8844C13.5075 20.613 14 20.1105 14 19.4975V10.0703C14 9.44721 13.4975 8.95475 12.8844 8.95475ZM7.63819 14.0804V17.3769C7.63819 17.7286 7.35679 18.01 7.00503 18.01C6.65327 18.01 6.37186 17.7286 6.37186 17.3769V14.0804C5.94975 13.8492 5.66835 13.4171 5.66835 12.9045C5.66835 12.1608 6.27136 11.5678 7.00503 11.5678C7.7387 11.5678 8.34171 12.1708 8.34171 12.9045C8.34171 13.4171 8.05025 13.8492 7.63819 14.0804Z" fill="white"/>
</svg>
